<svg width="600" height="600" xmlns="http://www.w3.org/2000/svg" version="1.1">
 <g class="layer">
  <title>Layer 1</title>
  <path d="m161.83,107c-17.97,0.27 -33.04,0.9 -33.5,1.39c-0.48,0.52 0.84,0.63 3.17,0.26c2.2,-0.34 27.59,-0.63 56.42,-0.64c28.83,-0.01 52.22,-0.2 51.99,-0.43c-0.77,-0.77 -44.8,-1.1 -78.08,-0.58m207.67,-0.01c-5.5,0.34 13.91,0.71 43.13,0.82c29.21,0.1 54.64,0.43 56.5,0.72c3.07,0.48 3.15,0.43 0.92,-0.54c-2.78,-1.22 -84.22,-2.03 -100.55,-1m-13.5,0.95c-8.39,2.56 -16.48,9.47 -19.48,16.66c-2.16,5.19 -1.8,5.59 0.78,0.85c1.21,-2.22 3.32,-5.51 4.68,-7.31c2.81,-3.69 11.69,-9.14 14.89,-9.14c1.17,0 2.13,-0.45 2.13,-1c0,-0.55 -0.11,-0.96 -0.25,-0.91c-0.14,0.04 -1.37,0.43 -2.75,0.85m-235.94,4.81c-3.34,2.36 -6.64,5.94 -8.93,9.66l-3.63,5.91l-0.53,44.59c-0.29,24.52 -0.29,49.77 0,56.09c0.29,6.32 0.75,-13.71 1.03,-44.52l0.5,-56.03l3.23,-5.03c3.6,-5.61 5.95,-7.99 11.66,-11.81c2.14,-1.44 3.45,-2.61 2.92,-2.61c-0.53,0 -3.35,1.69 -6.25,3.75m130.33,-0.84c5.17,3.05 10.5,9.01 12.61,14.1c0.7,1.68 1.46,2.86 1.7,2.62c0.67,-0.67 -3.29,-7.99 -6.17,-11.41c-2.41,-2.87 -10.41,-8.24 -12.21,-8.2c-0.45,0.01 1.38,1.31 4.07,2.89m224.11,-1.83c5.24,3.23 9.93,7.64 13.06,12.29c1.89,2.81 3.44,4.67 3.44,4.14c0,-3.64 -11.41,-15.4 -16.53,-17.03c-1.92,-0.62 -1.92,-0.6 0.03,0.6m17,76.23l0,58.19l-3.26,5.64c-3.37,5.83 -6.87,9.06 -13.74,12.67c-2.2,1.15 -3.64,2.12 -3.21,2.15c1.44,0.08 8.39,-3.82 11.53,-6.46c1.7,-1.44 4.57,-5.17 6.39,-8.3l3.29,-5.7l0.28,-56.08c0.16,-30.84 -0.07,-57.03 -0.5,-58.19c-0.43,-1.16 -0.78,24.08 -0.78,56.08m-158.04,0.19c0,28.6 0.13,40.16 0.29,25.68c0.16,-14.48 0.16,-37.88 0,-52c-0.16,-14.12 -0.29,-2.28 -0.29,26.32m-67,0.5c0,28.32 0.13,39.91 0.29,25.75c0.16,-14.16 0.16,-37.34 0,-51.5c-0.16,-14.16 -0.29,-2.57 -0.29,25.75m67.63,54.12c-0.15,2.86 3.97,10.95 7.69,15.05c3.16,3.5 11.75,8.91 13.94,8.78c0.43,-0.02 -1.47,-1.2 -4.22,-2.61c-2.75,-1.4 -6.28,-3.75 -7.84,-5.2c-2.81,-2.61 -7.24,-10.3 -8.72,-15.14c-0.42,-1.37 -0.81,-1.77 -0.85,-0.88m-71.68,7.12c-2.72,6.08 -7.49,10.99 -13.34,13.73c-2.79,1.3 -4.88,2.55 -4.66,2.77c0.77,0.78 9.13,-4 12.43,-7.1c3.17,-2.98 8.76,-12.38 7.88,-13.25c-0.22,-0.23 -1.27,1.51 -2.31,3.85m-153.39,-1.92c-0.04,1.8 5.33,9.8 8.2,12.21c3.42,2.88 10.74,6.84 11.41,6.17c0.24,-0.24 -0.94,-1 -2.62,-1.7c-5.09,-2.11 -11.05,-7.44 -14.1,-12.61c-1.58,-2.69 -2.88,-4.52 -2.89,-4.07m52.23,20.43c14.16,0.16 37.34,0.16 51.5,0c14.16,-0.16 2.57,-0.29 -25.75,-0.29c-28.32,0 -39.91,0.13 -25.75,0.29m227.07,0c14.2,0.16 37.15,0.16 51,0c13.85,-0.16 2.23,-0.29 -25.82,-0.29c-28.05,0 -39.38,0.13 -25.18,0.29m-227.5,67c14.48,0.16 37.88,0.16 52,0c14.12,-0.16 2.28,-0.29 -26.32,-0.29c-28.6,0 -40.16,0.13 -25.68,0.29m227,0c14.48,0.16 37.88,0.16 52,0c14.12,-0.16 2.28,-0.29 -26.32,-0.29c-28.6,0 -40.16,0.13 -25.68,0.29m-264.28,3.31c-5.06,2.52 -9.07,6.34 -12.18,11.61c-2.91,4.94 -4.63,10.33 -3.29,10.33c0.51,0 0.93,-0.96 0.93,-2.13c0,-3.2 5.45,-12.08 9.14,-14.89c1.8,-1.36 5.09,-3.47 7.31,-4.68c5.03,-2.74 3.49,-2.94 -1.91,-0.24m124.96,0.59c6.68,3.42 10.73,7.44 13.52,13.4c1.28,2.72 2.49,4.77 2.71,4.56c0.21,-0.22 -0.58,-2.44 -1.76,-4.95c-2.51,-5.35 -9.28,-11.93 -14.53,-14.12c-5.58,-2.33 -5.55,-1.76 0.06,1.11m102,-0.78c-7.06,3.23 -16.72,16.18 -16.41,22.01c0.04,0.89 0.43,0.5 0.85,-0.88c1.48,-4.85 5.91,-12.53 8.72,-15.14c1.56,-1.45 5.09,-3.8 7.84,-5.2c5.73,-2.94 4.99,-3.53 -1,-0.79m124,0.32c6.73,3.54 10.32,6.78 13.45,12.16c1.66,2.83 3.02,4.78 3.03,4.33c0.05,-1.79 -5.32,-9.79 -8.2,-12.21c-3.11,-2.62 -10.06,-6.51 -11.49,-6.43c-0.43,0.03 1.01,1 3.21,2.15m17,76.31c0,32.13 0.31,57.66 0.68,56.71c0.89,-2.23 0.89,-111.19 0,-113.42c-0.37,-0.94 -0.68,24.58 -0.68,56.71m-384.03,-0.5c0,29.43 0.12,41.46 0.28,26.75c0.16,-14.71 0.16,-38.79 0,-53.5c-0.16,-14.71 -0.28,-2.68 -0.28,26.75m158.99,0.5c0,28.6 0.13,40.16 0.29,25.68c0.16,-14.48 0.16,-37.88 0,-52c-0.16,-14.12 -0.29,-2.28 -0.29,26.32m67,0c0,28.6 0.13,40.16 0.29,25.68c0.16,-14.48 0.16,-37.88 0,-52c-0.16,-14.12 -0.29,-2.28 -0.29,26.32m-70.46,60.49c-2.11,5.09 -7.44,11.05 -12.61,14.1c-2.69,1.58 -4.52,2.88 -4.07,2.89c1.8,0.04 9.8,-5.33 12.21,-8.2c2.88,-3.42 6.84,-10.74 6.17,-11.41c-0.24,-0.24 -1,0.94 -1.7,2.62m72.04,-2.79c-0.09,1.53 2.52,6.5 5.37,10.2c2.89,3.76 10.86,9.62 13.04,9.58c0.58,-0.01 -1.12,-1.29 -3.77,-2.85c-5.26,-3.1 -9.24,-7.44 -12.49,-13.63c-1.16,-2.2 -2.12,-3.68 -2.15,-3.3m-226.04,2.39c0,0.52 1.54,3.22 3.42,6.02c3.3,4.9 12.96,12.35 14.28,11.02c0.35,-0.35 0.15,-0.63 -0.44,-0.63c-2.15,0 -11,-7.89 -14.09,-12.56c-1.75,-2.63 -3.17,-4.36 -3.17,-3.85m378.57,4.06c-2.81,4.43 -11.67,12.35 -13.83,12.35c-0.59,0 -0.81,0.26 -0.49,0.58c0.89,0.9 4.6,-1.4 9.39,-5.81c4.21,-3.88 9,-10.47 8.19,-11.27c-0.21,-0.21 -1.68,1.65 -3.26,4.15m-357.38,14.5c3.09,0.87 110.84,0.9 113.02,0.03c0.95,-0.37 -24.62,-0.68 -56.8,-0.68c-32.19,0 -57.49,0.29 -56.22,0.65m226.6,0.03c2.18,0.87 109.93,0.84 113.02,-0.03c1.27,-0.36 -24.03,-0.65 -56.21,-0.65c-32.19,0 -57.75,0.31 -56.81,0.68" fill="#3b4c54" fill-rule="evenodd" id="svg_1"/>
  <path d="m148.31,106.75c8.7,0.17 22.65,0.17 31,0c8.36,-0.17 1.24,-0.31 -15.81,-0.31c-17.05,0 -23.88,0.14 -15.19,0.31m79.69,0.25c9.61,0.46 -82.52,1.72 -98.72,1.35c-1.78,-0.04 -3.02,0.27 -2.76,0.68c0.58,0.94 -2.39,2.17 -3.54,1.46c-0.46,-0.29 -1.17,0 -1.56,0.65c-0.5,0.8 -0.28,0.9 0.67,0.32c1.2,-0.72 1.21,-0.59 0.04,0.85c-1.54,1.89 -3.65,2.34 -2.54,0.53c0.46,-0.73 0.28,-0.88 -0.5,-0.39c-0.67,0.41 -0.96,1.01 -0.65,1.33c0.79,0.79 -3.54,5.28 -4.52,4.67c-0.43,-0.26 -1.11,0.04 -1.5,0.69c-0.48,0.77 -0.29,0.9 0.55,0.38c0.86,-0.53 1.14,-0.33 0.83,0.59c-0.26,0.77 -0.95,1.39 -1.55,1.39c-0.6,0 -1.46,0.41 -1.92,0.91c-0.49,0.54 -0.27,0.58 0.55,0.11c0.95,-0.55 1.22,-0.36 0.87,0.59c-0.27,0.77 -0.99,1.28 -1.59,1.15c-0.63,-0.13 -0.82,0.46 -0.45,1.42c0.35,0.9 0.22,1.39 -0.29,1.08c-0.51,-0.32 -0.94,0.85 -0.96,2.58c-0.02,1.74 -0.22,27.46 -0.44,57.16c-0.22,29.7 -0.68,49.72 -1.02,44.5l-0.62,-9.5l-0.19,9.28c-0.16,7.69 0.08,9.39 1.41,9.9c1.16,0.44 1.43,1.4 1.01,3.51c-0.36,1.79 -0.2,2.68 0.41,2.3c1.02,-0.63 1.08,-0.49 1.47,3.33c0.14,1.27 0.81,2.85 1.5,3.5c1,0.94 1.02,0.73 0.1,-1.07c-0.64,-1.24 -0.93,-2.25 -0.65,-2.25c0.78,0 3.54,5.69 3.01,6.21c-0.25,0.26 0.55,1.33 1.78,2.38c1.81,1.55 1.98,1.58 0.88,0.16c-1.96,-2.53 0.22,-2.16 2.48,0.42c1.05,1.2 1.28,1.8 0.5,1.35c-0.95,-0.57 -1.17,-0.45 -0.67,0.34c0.39,0.65 1.11,0.93 1.58,0.64c1.19,-0.74 8.03,2.64 7.41,3.65c-0.28,0.45 0.97,0.56 2.79,0.25c1.87,-0.32 2.8,-0.21 2.14,0.27c-0.63,0.46 23.51,0.83 53.66,0.83c30.15,0 54.29,-0.37 53.66,-0.83c-0.66,-0.47 0.08,-0.56 1.67,-0.21c1.56,0.34 2.6,0.23 2.3,-0.25c-0.62,-1 8.11,-5.49 9.28,-4.77c0.96,0.6 7.34,-5.86 6.56,-6.63c-0.86,-0.86 3.76,-9.79 4.74,-9.18c0.48,0.3 0.59,-0.74 0.25,-2.3c-0.35,-1.59 -0.26,-2.33 0.21,-1.67c0.46,0.63 0.83,-23.51 0.83,-53.66c0,-30.15 -0.37,-54.29 -0.83,-53.66c-0.48,0.66 -0.59,-0.27 -0.27,-2.14c0.31,-1.82 0.18,-3.06 -0.3,-2.76c-0.93,0.57 -3.6,-4.94 -3.6,-7.44c0,-0.83 -0.45,-1.51 -1,-1.52c-1.53,-0.02 -3.5,-1.48 -3.5,-2.6c0,-0.55 0.56,-0.66 1.25,-0.25c0.83,0.5 0.78,0.17 -0.14,-0.96c-0.77,-0.95 -1.61,-1.5 -1.88,-1.23c-0.54,0.54 -6.23,-2.2 -6.23,-3c0,-0.28 1.01,0.01 2.25,0.65c1.8,0.92 2.01,0.9 1.07,-0.1c-0.65,-0.69 -2.23,-1.36 -3.5,-1.5c-3.82,-0.39 -3.96,-0.45 -3.33,-1.47c0.38,-0.61 -0.51,-0.77 -2.3,-0.41c-2.11,0.42 -3.07,0.15 -3.51,-1.01c-0.53,-1.36 -2.45,-1.57 -12.9,-1.4l-12.28,0.21l12.5,0.59m131.18,0.64c-0.62,1.11 -1.76,1.48 -3.52,1.15c-1.63,-0.32 -2.36,-0.12 -1.97,0.52c0.39,0.63 -0.02,0.77 -1.08,0.37c-1.15,-0.44 -1.48,-0.28 -1,0.5c0.49,0.78 0.16,0.95 -1,0.5c-0.98,-0.37 -1.46,-0.25 -1.13,0.29c0.61,0.99 -4.86,4.31 -5.71,3.47c-0.27,-0.27 -1.11,0.28 -1.88,1.23c-0.92,1.13 -0.97,1.46 -0.14,0.96c1.91,-1.15 1.49,0.85 -0.58,2.72c-1.01,0.91 -2.21,1.32 -2.66,0.9c-0.46,-0.41 -0.53,-0.22 -0.15,0.43c0.82,1.44 -2.36,8.44 -3.51,7.73c-0.45,-0.28 -0.56,0.97 -0.25,2.79c0.32,1.87 0.21,2.8 -0.27,2.15c-0.45,-0.64 -0.83,23.51 -0.83,53.65c0,30.15 0.37,54.29 0.83,53.66c0.48,-0.68 0.65,-0.04 0.39,1.56c-0.24,1.5 -0.12,2.53 0.26,2.29c0.38,-0.23 1.44,1.15 2.35,3.07c1.97,4.13 2.06,4.78 0.52,3.83c-0.73,-0.45 -0.89,-0.28 -0.43,0.45c0.39,0.65 1.14,0.91 1.65,0.6c0.82,-0.51 1.13,0.3 0.83,2.13c-0.17,1.08 5.39,6.35 6.19,5.86c1.16,-0.73 9.9,3.76 9.28,4.76c-0.3,0.48 0.74,0.59 2.3,0.25c1.59,-0.35 2.33,-0.26 1.68,0.21c-0.64,0.46 23.5,0.83 53.65,0.83c30.14,0 54.29,-0.37 53.65,-0.83c-0.65,-0.48 0.28,-0.59 2.15,-0.27c1.82,0.31 3.07,0.2 2.79,-0.25c-0.62,-1.01 6.22,-4.39 7.41,-3.65c0.47,0.29 1.19,0.01 1.58,-0.64c0.5,-0.8 0.29,-0.9 -0.68,-0.32c-1.2,0.72 -1.19,0.59 0.01,-0.89c0.78,-0.96 1.98,-1.52 2.68,-1.26c0.69,0.27 1.8,-0.16 2.46,-0.95c0.66,-0.79 0.9,-1.44 0.55,-1.44c-0.36,0 0.05,-1.35 0.9,-3c1.79,-3.46 3.12,-4.13 1.48,-0.75c-1.02,2.1 -0.99,2.13 0.4,0.4c0.81,-1.01 1.21,-2.55 0.88,-3.41c-0.39,-1.03 -0.2,-1.32 0.56,-0.85c0.78,0.48 0.94,0.15 0.5,-1c-0.43,-1.12 -0.27,-1.48 0.45,-1.03c0.8,0.49 1.11,-15.85 1.13,-59.87c0.01,-44.75 -0.28,-60.38 -1.11,-59.86c-0.74,0.46 -0.91,0.13 -0.5,-0.95c0.37,-0.96 0.18,-1.55 -0.45,-1.42c-0.6,0.13 -1.32,-0.38 -1.59,-1.15c-0.35,-0.95 -0.08,-1.14 0.87,-0.59c0.82,0.47 1.04,0.43 0.55,-0.11c-0.46,-0.5 -1.32,-0.91 -1.92,-0.91c-0.6,0 -1.29,-0.62 -1.55,-1.39c-0.32,-0.96 -0.03,-1.13 0.92,-0.56c1.17,0.71 1.17,0.58 0.02,-0.85c-0.75,-0.92 -1.7,-1.47 -2.12,-1.21c-0.41,0.25 -1.6,-0.53 -2.64,-1.75c-1.86,-2.18 -1.86,-2.19 0.12,-0.74c1.98,1.45 1.98,1.44 0.1,-0.77c-1.96,-2.29 -3.21,-3.02 -2.1,-1.23c1.04,1.69 -1.17,1.11 -2.63,-0.69c-1.17,-1.44 -1.16,-1.57 0.03,-0.85c0.97,0.58 1.18,0.48 0.68,-0.32c-0.39,-0.65 -1.1,-0.94 -1.56,-0.65c-1.17,0.72 -4.12,-0.52 -3.52,-1.49c0.27,-0.44 -0.75,-0.75 -2.25,-0.7c-11.95,0.42 -109.49,-0.83 -101.75,-1.3l10,-0.61l-9.7,-0.2c-8.09,-0.16 -9.85,0.08 -10.62,1.45m89.11,-0.9c3.74,0.2 9.59,0.19 13,0c3.42,-0.19 0.36,-0.35 -6.79,-0.35c-7.15,0 -9.94,0.16 -6.21,0.35m-341.84,64.76c0,21.45 0.14,30.08 0.3,19.18c0.16,-10.9 0.16,-28.44 0,-39c-0.16,-10.55 -0.3,-1.63 -0.3,19.82m387.02,15c0,29.7 0.12,41.71 0.28,26.68c0.15,-15.03 0.15,-39.33 0,-54c-0.16,-14.67 -0.28,-2.38 -0.28,27.32m-230.78,63.01c-0.91,1.92 -1.45,3.49 -1.2,3.49c0.69,0 3.72,-6.12 3.26,-6.58c-0.21,-0.22 -1.14,1.17 -2.06,3.09m-13.69,13.49c-1.93,1.05 -3.14,1.94 -2.7,1.96c1.06,0.05 6.7,-2.88 6.7,-3.49c0,-0.65 -0.06,-0.63 -4,1.53m98,-1.51c0,0.69 6.12,3.72 6.58,3.26c0.22,-0.21 -1.17,-1.14 -3.09,-2.06c-1.92,-0.91 -3.49,-1.45 -3.49,-1.2m-213.65,72.84c0.65,0.48 -0.28,0.59 -2.15,0.27c-1.82,-0.31 -3.07,-0.2 -2.79,0.25c0.71,1.15 -6.29,4.33 -7.73,3.51c-0.65,-0.38 -0.84,-0.31 -0.43,0.15c0.42,0.45 0.01,1.65 -0.9,2.66c-1.88,2.07 -3.84,2.48 -2.76,0.58c0.52,-0.92 0.34,-0.91 -0.69,0.05c-0.77,0.71 -1.46,1.73 -1.52,2.25c-0.07,0.52 -0.19,1.43 -0.25,2.01c-0.07,0.58 -0.55,0.8 -1.06,0.48c-0.51,-0.31 -1.26,-0.05 -1.65,0.6c-0.48,0.77 -0.29,0.9 0.55,0.37c0.87,-0.53 1.12,-0.33 0.78,0.6c-0.27,0.77 -0.99,1.28 -1.59,1.15c-0.63,-0.13 -0.82,0.46 -0.45,1.42c0.42,1.1 0.24,1.41 -0.53,0.93c-0.78,-0.48 -0.94,-0.15 -0.5,1c0.4,1.06 0.26,1.47 -0.37,1.08c-0.64,-0.39 -0.84,0.34 -0.52,1.97c0.33,1.76 -0.04,2.9 -1.15,3.52c-1.49,0.83 -1.64,5.85 -1.64,54.37c0,48.75 0.14,53.45 1.63,53.45c1.31,0 1.52,0.7 1.06,3.52c-0.31,1.94 -0.19,3.29 0.26,3.01c1,-0.62 2.28,2.29 1.54,3.49c-0.29,0.46 0,1.17 0.65,1.56c0.8,0.5 0.9,0.29 0.32,-0.68c-0.72,-1.19 -0.59,-1.2 0.85,-0.03c1.89,1.54 2.34,3.65 0.53,2.53c-0.72,-0.44 -0.88,-0.27 -0.42,0.46c0.39,0.65 1.07,0.95 1.5,0.69c0.98,-0.61 5.31,3.88 4.52,4.67c-0.31,0.32 -0.02,0.92 0.65,1.33c0.78,0.49 0.96,0.34 0.5,-0.4c-1.11,-1.8 1,-1.35 2.54,0.54c1.17,1.44 1.16,1.57 -0.04,0.85c-0.95,-0.58 -1.17,-0.48 -0.67,0.32c0.39,0.65 1.1,0.94 1.56,0.65c1.22,-0.75 4.1,0.54 3.48,1.56c-0.3,0.48 26.39,0.85 60.03,0.84c37.83,-0.01 60.34,-0.37 59.98,-0.96c-0.61,-0.99 -0.47,-1.05 3.35,-1.44c1.27,-0.14 2.85,-0.81 3.5,-1.5c0.94,-1 0.73,-1.02 -1.07,-0.1c-1.24,0.64 -2.25,0.93 -2.25,0.65c0,-0.8 5.69,-3.54 6.23,-3c0.27,0.27 1.11,-0.28 1.88,-1.23c0.92,-1.13 0.97,-1.46 0.14,-0.96c-1.85,1.11 -1.52,-0.9 0.4,-2.5c0.91,-0.75 1.92,-1.37 2.23,-1.37c0.32,0 0.59,-0.45 0.6,-1c0.04,-2.16 2.8,-7.44 3.62,-6.94c0.48,0.3 0.61,-0.94 0.3,-2.76c-0.32,-1.87 -0.21,-2.8 0.27,-2.15c0.46,0.64 0.83,-23.51 0.83,-53.65c0,-30.15 -0.37,-54.29 -0.83,-53.65c-0.47,0.65 -0.56,-0.09 -0.21,-1.68c0.34,-1.56 0.23,-2.6 -0.25,-2.3c-1,0.62 -5.49,-8.11 -4.77,-9.28c0.6,-0.96 -5.86,-7.34 -6.63,-6.56c-0.86,0.86 -9.79,-3.76 -9.18,-4.74c0.3,-0.48 -0.74,-0.59 -2.3,-0.25c-1.59,0.35 -2.33,0.26 -1.67,-0.21c0.63,-0.46 -23.51,-0.83 -53.66,-0.83c-30.14,0 -54.29,0.38 -53.65,0.83m226,0c0.65,0.47 -0.09,0.56 -1.68,0.21c-1.56,-0.34 -2.6,-0.23 -2.3,0.25c0.62,1 -8.11,5.49 -9.28,4.77c-0.96,-0.6 -7.34,5.86 -6.56,6.63c0.76,0.76 -3.7,9.83 -4.56,9.29c-0.37,-0.23 -0.49,0.8 -0.25,2.3c0.26,1.6 0.09,2.24 -0.39,1.57c-0.46,-0.64 -0.83,23.5 -0.83,53.65c0,30.14 0.38,54.29 0.83,53.65c0.48,-0.65 0.59,0.28 0.27,2.15c-0.31,1.82 -0.18,3.06 0.3,2.76c0.93,-0.57 3.6,4.94 3.6,7.44c0,0.82 0.45,1.51 1,1.51c1.53,0.03 3.5,1.49 3.5,2.61c0,0.55 -0.56,0.68 -1.25,0.29c-0.92,-0.52 -0.91,-0.34 0.05,0.69c0.71,0.77 1.73,1.46 2.25,1.53c0.52,0.06 1.43,0.18 2.01,0.25c0.58,0.06 0.8,0.54 0.48,1.05c-0.31,0.51 -0.05,1.26 0.6,1.65c0.77,0.48 0.9,0.29 0.37,-0.56c-0.53,-0.86 -0.33,-1.11 0.6,-0.77c0.77,0.27 1.27,1.04 1.12,1.7c-0.16,0.66 0.14,0.94 0.65,0.62c1.28,-0.79 4.23,0.44 3.58,1.49c-0.28,0.46 26.73,0.84 60.04,0.84c33.31,0 60.32,-0.38 60.04,-0.84c-0.63,-1.01 2.27,-2.29 3.48,-1.55c0.46,0.29 1.17,0 1.56,-0.65c0.5,-0.8 0.29,-0.9 -0.68,-0.32c-1.19,0.72 -1.2,0.59 -0.03,-0.85c1.59,-1.95 3.59,-2.3 2.54,-0.44c-0.39,0.69 1.16,-0.53 3.44,-2.7c4.14,-3.94 5.16,-5.3 3.02,-3.97c-0.68,0.42 -0.95,0.15 -0.67,-0.69c0.26,-0.76 0.95,-1.39 1.55,-1.39c0.6,0 1.46,-0.41 1.92,-0.91c0.49,-0.54 0.27,-0.58 -0.55,-0.11c-0.95,0.55 -1.22,0.37 -0.87,-0.59c0.27,-0.76 0.99,-1.28 1.59,-1.15c0.63,0.14 0.82,-0.46 0.45,-1.42c-0.41,-1.07 -0.24,-1.41 0.49,-0.96c0.81,0.51 1.12,-15.55 1.13,-59.87c0.02,-38.72 -0.33,-60.35 -0.94,-59.97c-1.01,0.62 -1.07,0.48 -1.46,-3.34c-0.14,-1.27 -0.81,-2.85 -1.5,-3.5c-1,-0.94 -1.02,-0.73 -0.1,1.07c0.64,1.24 0.93,2.25 0.65,2.25c-0.28,0 -1.21,-1.35 -2.06,-3c-0.85,-1.65 -1.26,-3 -0.9,-3c0.35,0 0.11,-0.65 -0.55,-1.44c-0.66,-0.79 -1.77,-1.22 -2.46,-0.95c-0.7,0.26 -1.9,-0.3 -2.68,-1.26c-1.2,-1.48 -1.21,-1.61 -0.01,-0.89c0.97,0.58 1.18,0.48 0.68,-0.32c-0.39,-0.65 -1.11,-0.93 -1.58,-0.64c-1.19,0.74 -8.03,-2.64 -7.41,-3.65c0.28,-0.45 -0.97,-0.56 -2.79,-0.25c-1.87,0.32 -2.8,0.21 -2.15,-0.27c0.64,-0.45 -23.51,-0.83 -53.65,-0.83c-30.15,0 -54.29,0.37 -53.65,0.83m-251.88,78.67c0,29.43 0.12,41.46 0.28,26.75c0.16,-14.71 0.16,-38.79 0,-53.5c-0.16,-14.71 -0.28,-2.68 -0.28,26.75m386,0.5c0,29.7 0.12,41.71 0.28,26.68c0.15,-15.03 0.15,-39.33 0,-54c-0.16,-14.67 -0.28,-2.38 -0.28,27.32m-334.29,80.25c14.67,0.15 38.97,0.15 54,0c15.03,-0.16 3.02,-0.28 -26.68,-0.28c-29.7,0 -41.99,0.12 -27.32,0.28m227,0c14.67,0.15 38.97,0.15 54,0c15.03,-0.16 3.02,-0.28 -26.68,-0.28c-29.7,0 -41.99,0.12 -27.32,0.28" fill="#ff0000" fill-rule="evenodd" id="svg_2"/>
 </g>
</svg>