<svg width="512" height="512" xmlns="http://www.w3.org/2000/svg" version="1.1">
 <g class="layer">
  <title>Layer 1</title>
  <path fill="#3f51b5" fill-rule="evenodd" id="svg_1"/>
  <path d="m132.82,2.33c-15.24,6.41 -23.55,19.46 -22.62,35.56c0.9,15.48 -5.84,7.87 105.08,118.86l99.19,99.25l-99.19,99.25c-112.83,112.91 -104.78,103.63 -104.78,120.75c0,8.21 0.36,10.28 2.67,15.2c3.41,7.26 10.37,14.22 17.63,17.63c4.92,2.31 6.99,2.67 15.2,2.67c17.23,0 6,9.91 135.71,-119.79c129.7,-129.71 119.79,-118.48 119.79,-135.71c0,-17.23 9.91,-6 -119.79,-135.71c-128.6,-128.59 -118.38,-119.49 -134.71,-120.05c-7.12,-0.24 -9.42,0.1 -14.18,2.09" fill="#ffffff" fill-rule="evenodd" id="svg_2"/>
 </g>
</svg>