<svg width="902.86" height="902.86" xmlns="http://www.w3.org/2000/svg" version="1.1" xml:space="preserve">
 <g class="layer">
  <title>Layer 1</title>
  <g id="SVGRepo_bgCarrier" stroke-width="0"/>
  <g id="SVGRepo_tracerCarrier" stroke-linecap="round" stroke-linejoin="round"/>
  <g id="SVGRepo_iconCarrier">
   <g id="svg_1">
    <g id="svg_2">
     <path d="m671.5,577.83l110.49,-432.61l120.87,0l0,-68l-173.69,0l-26.04,101.98l-703.13,-0.5l74.75,399.13l596.75,0l0,0zm14.27,-330.64l-67.08,262.64l-487.49,0l-49.27,-263.07l603.84,0.43z" fill="#1b1454" id="svg_3" stroke="#ffffff"/>
     <path d="m578.42,825.64c59.96,0 108.74,-48.78 108.74,-108.74s-48.78,-108.75 -108.74,-108.75l-409.7,0c-59.96,0 -108.75,48.79 -108.75,108.75s48.78,108.74 108.75,108.74c59.96,0 108.74,-48.78 108.74,-108.74c0,-14.4 -2.82,-28.16 -7.93,-40.75l208.07,0c-5.11,12.6 -7.93,26.35 -7.93,40.75c0.01,59.96 48.79,108.74 108.75,108.74zm-368.96,-108.74c0,22.46 -18.28,40.74 -40.74,40.74c-22.47,0 -40.75,-18.28 -40.75,-40.74c0,-22.47 18.28,-40.74 40.75,-40.74c22.46,-0.01 40.74,18.27 40.74,40.74zm409.7,0c0,22.46 -18.28,40.74 -40.74,40.74s-40.74,-18.28 -40.74,-40.74c0,-22.47 18.27,-40.74 40.74,-40.74s40.74,18.27 40.74,40.74z" fill="#1b1454" id="svg_4" stroke="#ffffff"/>
    </g>
   </g>
  </g>
 </g>
</svg>