<svg width="2500" height="1958.9999999999998" xmlns="http://www.w3.org/2000/svg" preserveAspectRatio="xMidYMid meet" version="1.0">
 <g class="layer">
  <title>Layer 1</title>
  <g fill="#000000" id="svg_1" transform="matrix(0.1 0 0 -0.1 0 0)">
   <path d="m380,-279c-132,-28 -239,-78 -337,-158l-43,-34l0,-8214l0,-8214l52,-39c110,-82 221,-130 348,-152c47,-8 3425,-10 12145,-8l12080,3l78,28c102,36 158,65 235,121l62,46l0,8214l0,8214l-33,29c-89,78 -226,141 -367,167c-74,15 -1224,16 -12109,15c-11547,0 -12029,-1 -12111,-18zm23260,-8406l0,-6795l-11140,0l-11140,0l0,6795l0,6795l11140,0l11140,0l0,-6795z" fill="#1b1454" id="svg_2" stroke="#ffffff"/>
   <path d="m10762,-5160c-319,-44 -565,-254 -673,-575l-24,-70l-3,-2849c-2,-2810 -2,-2849 18,-2932c73,-309 314,-544 623,-608c204,-42 441,2 599,112c29,21 244,157 478,303c503,315 3237,2022 3625,2264c305,190 375,242 446,329c58,70 130,212 156,306c24,90 24,309 -1,399c-64,234 -238,440 -448,530c-24,10 -219,128 -433,263c-215,135 -597,375 -850,533c-253,159 -557,349 -675,423c-118,74 -462,290 -765,480c-302,189 -755,473 -1005,630c-250,157 -486,305 -523,329c-169,110 -365,157 -545,133z" fill="#1b1454" id="svg_3" stroke="#ffffff"/>
   <path d="m7495,-17661c-277,-39 -518,-224 -632,-485c-107,-243 -78,-552 72,-774c106,-157 257,-266 452,-327l88,-28l5020,0c4764,0 5023,1 5084,18c152,42 257,98 363,196c168,155 258,363 258,596c0,125 -22,230 -71,333c-109,234 -285,383 -539,456l-75,21l-4980,1c-2739,1 -5007,-2 -5040,-7z" fill="#1b1454" id="svg_4" stroke="#ffffff"/>
  </g>
 </g>
</svg>