<svg width="73" height="73" xmlns="http://www.w3.org/2000/svg" version="1.1">
 <g class="layer">
  <title>Layer 1</title>
  <path d="m19.33,10.79c-11.09,3.96 -17.52,11.61 -18.12,21.58c-0.44,7.26 1.24,11.91 6.33,17.54c3.08,3.41 3.37,4.19 2.48,6.54c-1.4,3.68 -1.31,4.26 0.98,6.55c2.72,2.72 5.62,2.52 12.59,-0.89c3.82,-1.87 8.14,-3.07 12.24,-3.41c3.48,-0.29 6.56,-0.76 6.84,-1.04c0.29,-0.28 0.23,-1.85 -0.13,-3.47c-0.63,-2.9 -0.72,-2.94 -4.84,-2.01c-2.31,0.52 -5.77,0.81 -7.7,0.64c-2.54,-0.22 -4.67,0.49 -7.77,2.59c-2.35,1.58 -4.46,2.69 -4.69,2.46c-0.24,-0.24 -0.06,-2.08 0.4,-4.09c0.78,-3.49 0.64,-3.8 -3.02,-6.34c-4.07,-2.81 -7.92,-9.41 -7.92,-13.54c0,-1.36 1.01,-4.48 2.25,-6.94c5.41,-10.72 23.09,-15.16 35.4,-8.89c4.08,2.09 5.14,1.7 5.57,-2.05c0.23,-1.97 -0.49,-2.82 -3.72,-4.4c-5.82,-2.86 -20.23,-3.3 -27.17,-0.83m-2.5,18.6c-4.69,2.33 -3.04,9.61 2.18,9.61c3.89,0 6.46,-3.65 5.09,-7.23c-1.14,-3 -4.08,-3.96 -7.27,-2.38m16.45,-0.3c-3.07,1.14 -4.01,5.44 -1.74,7.95c4.55,5.03 12.45,-0.94 8.21,-6.21c-1.73,-2.14 -3.85,-2.72 -6.47,-1.74" fill="#ffffff" fill-rule="evenodd" id="svg_1" transform="matrix(1 0 0 1 0 0)"/>
  <path d="m56.78,11.23c-0.98,0.75 -3.71,8.48 -6.64,18.77c-4.54,15.96 -4.9,17.98 -4.09,23c1.96,12.21 3.19,12.75 10.29,4.53c4.4,-5.1 5.08,-6.66 9.76,-22.67c2.83,-9.66 4.79,-18.17 4.48,-19.41c-0.41,-1.6 -1.75,-2.51 -4.94,-3.31c-2.41,-0.61 -5.02,-1.35 -5.79,-1.64c-0.77,-0.3 -2.15,0.03 -3.07,0.73m1.79,5.44c-0.82,2.15 0.23,3.14 4.21,3.94c2.83,0.56 3.22,0.38 3.22,-1.51c0,-1.39 -0.91,-2.49 -2.56,-3.13c-3.5,-1.32 -4.12,-1.24 -4.87,0.7m-8.57,35.75c0,3.05 2.65,4.11 3.99,1.6c1.04,-1.94 0.83,-2.24 -2.24,-3.33c-1.35,-0.48 -1.75,-0.09 -1.75,1.73" fill="#ff0000" fill-rule="evenodd" id="svg_2"/>
 </g>
</svg>