<svg xmlns="http://www.w3.org/2000/svg" width="225" height="225" viewBox="0 0 225 225" version="1.1"><path d="M 218 2.162 C 215.525 3.273, 193.025 12.442, 168 22.538 C 126.399 39.320, 102.533 48.979, 27.500 79.398 C 13.200 85.195, 1.615 90.290, 1.755 90.719 C 1.895 91.149, 5.270 91.549, 9.255 91.608 C 18.204 91.742, 34.485 93.592, 38.507 94.931 C 41.363 95.882, 113.857 104.964, 118.819 104.992 C 119.545 104.997, 142.870 82.387, 170.652 54.750 C 198.435 27.112, 221.415 4.275, 221.720 4 C 222.024 3.725, 222.029 4.841, 221.731 6.481 C 221.220 9.290, 221.273 9.348, 222.642 7.481 C 223.442 6.391, 223.891 4.713, 223.642 3.750 C 223.392 2.788, 223.595 2, 224.094 2 C 224.592 2, 225 1.550, 225 1 C 225 -0.445, 223.106 -0.131, 218 2.162" stroke="none" fill="#fbe06c" fill-rule="evenodd"/><path d="M 170.822 54.564 C 142.950 82.304, 119.550 104.997, 118.822 104.992 C 113.858 104.964, 41.364 95.883, 38.507 94.931 C 34.537 93.609, 18.254 91.744, 9.500 91.608 C 5.650 91.549, 1.938 91.136, 1.250 90.691 C 0.563 90.246, 0 90.282, 0 90.770 C -0 91.809, 15.522 99.560, 37.500 109.496 C 39.700 110.490, 45.100 112.973, 49.500 115.014 C 63.568 121.539, 68.397 123.727, 72.940 125.635 C 75.382 126.661, 80.484 129.075, 84.278 131 L 91.177 134.500 98.161 149.500 C 102.003 157.750, 106.070 166.525, 107.201 169 C 108.331 171.475, 113.757 183.175, 119.257 195 C 124.758 206.825, 130.099 218.446, 131.126 220.825 C 132.771 224.635, 133.169 224.974, 134.467 223.676 C 136.615 221.527, 142.151 207.069, 141.356 205.682 C 140.984 205.032, 141.066 204.852, 141.538 205.282 C 142.628 206.274, 148.264 192.236, 147.362 190.776 C 146.961 190.129, 147.157 189.979, 147.845 190.405 C 148.917 191.067, 149.394 189.682, 149.270 186.261 C 149.246 185.579, 149.587 185.245, 150.028 185.517 C 151.193 186.237, 154.354 177.381, 153.452 175.922 C 152.990 175.174, 153.104 174.946, 153.744 175.342 C 155.040 176.143, 168.347 143.370, 167.368 141.786 C 166.996 141.184, 167.115 140.953, 167.633 141.273 C 168.152 141.594, 169.166 140.426, 169.889 138.678 C 170.611 136.930, 171.867 134.006, 172.681 132.180 C 173.495 130.354, 173.904 128.193, 173.592 127.378 C 173.229 126.432, 173.438 126.152, 174.169 126.604 C 174.949 127.086, 175.135 126.623, 174.751 125.155 C 174.386 123.759, 174.566 123.232, 175.263 123.663 C 175.951 124.088, 176.102 123.708, 175.681 122.612 C 175.318 121.666, 175.434 121.150, 175.939 121.463 C 177.128 122.197, 178.349 118.373, 177.410 116.854 C 176.980 116.158, 177.126 115.960, 177.773 116.360 C 179.084 117.170, 180.421 113.490, 179.410 111.854 C 178.988 111.171, 179.125 110.959, 179.743 111.341 C 181.059 112.155, 190.325 89.371, 189.362 87.690 C 188.986 87.036, 189.065 86.851, 189.536 87.280 C 190.647 88.291, 198.251 69.242, 197.358 67.683 C 196.985 67.033, 197.067 66.853, 197.542 67.285 C 198.631 68.277, 202.260 59.230, 201.358 57.771 C 200.977 57.154, 201.155 56.978, 201.773 57.360 C 203.084 58.170, 204.421 54.490, 203.410 52.854 C 202.963 52.130, 203.127 51.960, 203.845 52.405 C 204.917 53.067, 205.394 51.682, 205.270 48.261 C 205.246 47.579, 205.625 47.268, 206.113 47.570 C 206.926 48.073, 207.383 46.374, 207.270 43.261 C 207.246 42.579, 207.577 42.238, 208.005 42.503 C 209.288 43.296, 222.682 8.792, 222.054 6.314 C 221.580 4.445, 214.164 11.430, 170.822 54.564" stroke="none" fill="#f5be06" fill-rule="evenodd"/></svg>