<svg xmlns="http://www.w3.org/2000/svg" width="600" height="588" viewBox="0 0 600 588" version="1.1">
<path d="M 59.754 18.580 C 51.541 20.065, 42.412 23.396, 35.577 27.402 C 29.966 30.690, 22.336 39.033, 19.679 44.783 L 17.500 49.500 17.500 294 L 17.500 538.500 20.103 544.050 C 23.314 550.895, 31.088 558.702, 38.772 562.798 C 54.833 571.358, 82.486 573.843, 106.318 568.868 C 109.168 568.273, 159.425 555.436, 218 540.341 C 316.704 514.905, 325.232 512.539, 334.500 508.027 C 351.156 499.919, 364.623 486.722, 370.246 473 C 372.460 467.599, 372.509 466.573, 373 415.750 L 373.500 363.999 363.750 364 L 354 364 353.990 413.250 L 353.980 462.500 351.474 467.884 C 345.906 479.846, 330.085 491.121, 311.500 496.373 C 293.693 501.405, 107.334 549.215, 100.162 550.592 C 90.295 552.485, 68.732 552.420, 60.197 550.470 C 50.618 548.282, 43.179 544.256, 39.288 539.155 L 36 534.845 36 294.063 L 36 53.282 40.036 48.696 C 45.142 42.895, 52.329 39.476, 63.516 37.525 C 84.355 33.891, 90.998 35.017, 172 55.908 C 210.225 65.767, 251.400 76.384, 263.500 79.502 C 313.558 92.402, 319.675 94.162, 326.976 97.769 C 335.532 101.995, 346.671 111.884, 350.814 118.932 L 353.500 123.500 354 174 L 354.500 224.500 363.776 224.788 L 373.052 225.076 372.776 172.788 L 372.500 120.500 368.722 112.587 C 361.962 98.429, 345.990 84.598, 328.056 77.372 C 323.048 75.355, 289.830 66.560, 194.500 42.013 C 176.900 37.481, 150.575 30.687, 136 26.914 C 121.425 23.142, 105.225 19.370, 100 18.532 C 88.403 16.672, 70.187 16.694, 59.754 18.580 M 457.237 198.957 L 450.974 205.673 482.158 234.586 C 499.309 250.489, 518.186 267.977, 524.107 273.448 C 530.028 278.920, 534.650 283.757, 534.377 284.198 C 534.105 284.639, 451.109 285, 349.941 285 L 166 285 166 294.497 L 166 303.995 350.686 304.247 L 535.372 304.500 515.436 322.983 C 504.471 333.148, 485.574 350.746, 473.441 362.089 L 451.383 382.712 457.441 389.369 C 460.774 393.030, 463.830 396.019, 464.233 396.013 C 464.636 396.006, 471.611 389.841, 479.733 382.314 C 544.698 322.105, 574.012 294.548, 573.776 293.908 C 573.524 293.222, 563.167 283.548, 489.036 214.750 C 475.553 202.238, 464.292 192.054, 464.011 192.121 C 463.730 192.187, 460.682 195.264, 457.237 198.957" stroke="none" fill="#fcfcfc" fill-rule="evenodd"/>
<path d="M 54 1.962 C 27.973 7.537, 9.456 21.828, 2.416 41.774 L 0.042 48.500 0.021 294.205 L -0 539.909 2.350 546.383 C 9.341 565.644, 26.338 579.495, 50.378 585.523 C 59.185 587.731, 62.346 588, 79.518 588 C 100.906 588, 106.329 587.254, 130.500 580.990 C 138.750 578.852, 186.538 566.507, 236.697 553.558 C 286.855 540.608, 330.159 529.120, 332.928 528.028 C 362.656 516.311, 384.329 493.730, 389.584 469 C 390.667 463.905, 390.969 450.018, 390.983 404.750 L 391 347 364 347 L 337 347 337 402.550 C 337 465.074, 337.542 460.631, 328.984 468.325 C 321.774 474.807, 315.448 477.462, 294.175 482.931 C 258.933 491.992, 223.493 501.145, 214.500 503.509 C 209.550 504.810, 188.625 510.205, 168 515.498 C 147.375 520.791, 124.475 526.701, 117.111 528.632 C 99.376 533.282, 89.194 535.001, 79.500 534.981 C 70.467 534.963, 58.891 532.814, 55.357 530.498 L 52.996 528.951 53.248 294.226 L 53.500 59.500 58 57.275 C 64.074 54.272, 76.840 52.947, 88.794 54.078 C 97.141 54.867, 117.821 59.771, 166.500 72.504 C 180.061 76.051, 206.059 82.777, 263.105 97.496 C 291.488 104.820, 316.463 111.713, 318.605 112.814 C 325.019 116.112, 330.810 120.755, 333.996 125.154 L 337 129.300 337 185.650 L 337 242 364 242 L 391 242 391 184.136 C 391 150.275, 390.591 124.115, 390.014 121.072 C 385.873 99.238, 368.454 78.171, 344.202 65.666 C 333.174 59.979, 326.762 57.976, 287.500 47.951 C 269.900 43.457, 248.075 37.837, 239 35.461 C 175.192 18.758, 112.089 2.847, 104.500 1.548 C 91.681 -0.648, 65.165 -0.430, 54 1.962 M 59.754 18.580 C 51.541 20.065, 42.412 23.396, 35.577 27.402 C 29.966 30.690, 22.336 39.033, 19.679 44.783 L 17.500 49.500 17.500 294 L 17.500 538.500 20.103 544.050 C 23.314 550.895, 31.088 558.702, 38.772 562.798 C 54.833 571.358, 82.486 573.843, 106.318 568.868 C 109.168 568.273, 159.425 555.436, 218 540.341 C 316.704 514.905, 325.232 512.539, 334.500 508.027 C 351.156 499.919, 364.623 486.722, 370.246 473 C 372.460 467.599, 372.509 466.573, 373 415.750 L 373.500 363.999 363.750 364 L 354 364 353.990 413.250 L 353.980 462.500 351.474 467.884 C 345.906 479.846, 330.085 491.121, 311.500 496.373 C 293.693 501.405, 107.334 549.215, 100.162 550.592 C 90.295 552.485, 68.732 552.420, 60.197 550.470 C 50.618 548.282, 43.179 544.256, 39.288 539.155 L 36 534.845 36 294.063 L 36 53.282 40.036 48.696 C 45.142 42.895, 52.329 39.476, 63.516 37.525 C 84.355 33.891, 90.998 35.017, 172 55.908 C 210.225 65.767, 251.400 76.384, 263.500 79.502 C 313.558 92.402, 319.675 94.162, 326.976 97.769 C 335.532 101.995, 346.671 111.884, 350.814 118.932 L 353.500 123.500 354 174 L 354.500 224.500 363.776 224.788 L 373.052 225.076 372.776 172.788 L 372.500 120.500 368.722 112.587 C 361.962 98.429, 345.990 84.598, 328.056 77.372 C 323.048 75.355, 289.830 66.560, 194.500 42.013 C 176.900 37.481, 150.575 30.687, 136 26.914 C 121.425 23.142, 105.225 19.370, 100 18.532 C 88.403 16.672, 70.187 16.694, 59.754 18.580 M 447.500 184.117 C 425.571 207.677, 426.849 206.113, 428.203 207.744 C 428.849 208.523, 441.321 220.261, 455.918 233.830 C 470.515 247.398, 484.493 260.402, 486.979 262.727 L 491.500 266.954 319.750 266.977 L 148 267 148 294 L 148 321 320.004 321 L 492.008 321 459.482 351.185 C 441.593 367.786, 427.079 381.687, 427.228 382.075 C 427.378 382.462, 435.556 391.393, 445.403 401.920 C 463.250 421, 463.313 421.055, 465.403 419.179 C 468.254 416.621, 594.900 299.314, 597.837 296.511 L 600.175 294.280 565.861 262.390 C 546.989 244.850, 518.731 218.575, 503.066 204 C 465.166 168.737, 464.353 168, 463.360 168 C 462.887 168.001, 455.750 175.253, 447.500 184.117 M 457.237 198.957 L 450.974 205.673 482.158 234.586 C 499.309 250.489, 518.186 267.977, 524.107 273.448 C 530.028 278.920, 534.650 283.757, 534.377 284.198 C 534.105 284.639, 451.109 285, 349.941 285 L 166 285 166 294.497 L 166 303.995 350.686 304.247 L 535.372 304.500 515.436 322.983 C 504.471 333.148, 485.574 350.746, 473.441 362.089 L 451.383 382.712 457.441 389.369 C 460.774 393.030, 463.830 396.019, 464.233 396.013 C 464.636 396.006, 471.611 389.841, 479.733 382.314 C 544.698 322.105, 574.012 294.548, 573.776 293.908 C 573.524 293.222, 563.167 283.548, 489.036 214.750 C 475.553 202.238, 464.292 192.054, 464.011 192.121 C 463.730 192.187, 460.682 195.264, 457.237 198.957" stroke="none" fill="#1c1454" fill-rule="evenodd"/>
</svg>