
<svg width="512" height="512" xmlns="http://www.w3.org/2000/svg" version="1.1">
 <g class="layer">
  <title>Layer 1</title>
  <path d="m246.31,118.53c-6.08,3.03 -9.81,8 -11.33,15.1c-0.72,3.36 -0.99,18 -0.79,42.5c0.3,36.24 0.38,37.49 2.5,41.46c4.57,8.55 13.19,13.25 22.07,12.03c8.53,-1.17 15.37,-6.95 17.76,-15.02c2.22,-7.46 2.16,-75.96 -0.08,-83.47c-3.8,-12.8 -17.9,-18.69 -30.13,-12.6m-76.79,315.57c1.16,3.76 6.44,13.95 9.79,18.9c16.08,23.81 42.76,39.04 71.26,40.7c39.15,2.27 75.28,-20.17 90.91,-56.46c1.01,-2.34 1.65,-4.44 1.43,-4.66c-0.23,-0.22 -6.03,0.41 -12.91,1.42c-6.87,1 -18.8,2.38 -26.5,3.07c-13.77,1.24 -14.09,1.33 -19.71,5.16c-9.28,6.32 -15.59,8.18 -27.79,8.17c-11.99,-0.01 -17.78,-1.75 -27.74,-8.36c-5.15,-3.42 -6.66,-3.9 -14.26,-4.51c-9.64,-0.79 -36.78,-4.12 -41.86,-5.15c-3.2,-0.64 -3.33,-0.56 -2.62,1.72" fill="#ffffff" fill-rule="evenodd" id="svg_1"/>
  <path d="m233.82,22.53c-60.88,8.3 -112.79,51.41 -132.37,109.93c-6.96,20.79 -7.57,25.77 -8.39,68.54c-0.73,38.02 -0.78,38.61 -3.47,47.5c-3.83,12.66 -4.46,13.9 -22.35,43.69c-19.32,32.2 -21.26,37 -21.96,54.31c-0.37,9.22 -0.1,13.5 1.19,18.5c4.58,17.77 16.13,32.8 32.4,42.19c2.96,1.7 11.21,5.04 18.35,7.42c46.94,15.64 105.31,24.73 158.78,24.73c53.56,0 108.9,-8.41 157,-23.86c17.05,-5.48 24.03,-9.46 34.12,-19.49c6.98,-6.94 9.39,-10.17 12.71,-17.03c5.18,-10.72 7.38,-20.06 7.41,-31.46c0.04,-17.07 -2.8,-24.05 -24.55,-60.28c-21.97,-36.61 -22.66,-39.14 -22.68,-83.25c-0.02,-46.82 -3.25,-63.85 -17.52,-92.47c-8.37,-16.79 -17.42,-29.38 -30.51,-42.48c-36.4,-36.4 -87.1,-53.46 -138.16,-46.49m7.68,42.6c-49.78,6.27 -91.05,43.57 -102.69,92.81c-1.76,7.41 -2.13,13.73 -2.82,47.06c-0.44,21.18 -1.27,40.62 -1.86,43.21c-4.97,22.14 -8.83,30.91 -27.41,62.24c-8.8,14.82 -16.6,28.42 -17.35,30.22c-2.09,5 -1.73,13.95 0.76,19.1c2.21,4.56 7.72,9.28 13.87,11.87c5.17,2.19 32.28,9.93 44.69,12.77c83.1,18.99 172.29,15.67 250.32,-9.34c14.26,-4.57 18.68,-7.56 22.59,-15.26c2.77,-5.47 3.45,-14.91 1.46,-20.15c-0.59,-1.54 -8.08,-14.53 -16.66,-28.86c-16.54,-27.63 -19.79,-34.22 -23.9,-48.38c-4.68,-16.18 -5.49,-24.53 -5.5,-56.92c-0.01,-32.68 -0.9,-41.75 -5.61,-56.67c-14.14,-44.92 -54.17,-78 -101.36,-83.79c-9.73,-1.19 -18.53,-1.16 -28.53,0.09" fill="#ffffff" fill-rule="evenodd" id="svg_2" transform="matrix(1 0 0 1 0 0)"/>
 </g>
</svg>