<svg
    width="178"
    height="23"
    viewBox="0 0 178 23"
    fill="none"
    xmlns="http://www.w3.org/2000/svg"
>
    <path
        d="M85.6322 1.40487C85.6322 1.40487 83.9317 1.198 81.9964 1.198C80.0628 1.198 78.4292 1.38834 78.4292 1.38834V7.6828H85.6322V1.40487Z"
        fill="#E4003C"
    />
    <path
        d="M85.6322 15.8573H78.4292V21.8259C78.4292 21.8259 80.4741 22.0227 82.0864 22.0227C83.6998 22.0227 85.6322 21.7836 85.6322 21.7836V15.8573Z"
        fill="#E4003C"
    />
    <path
        d="M75.5001 1.38739H67.0256L61.1243 8.76945H58.3866V1.38739H51.0424V21.8306H58.3866V14.134H61.0416L66.9659 21.8294H76.0332L67.1917 10.9793L75.5001 1.38739Z"
        fill="#252069"
    />
    <path
        d="M23.0918 1.38739H0V21.8294H7.39899V7.17052H15.6928V21.8294H23.0918V1.38739Z"
        fill="#252069"
    />
    <path
        d="M26.815 6.81674L25.7706 1.38364C25.7706 1.38364 32.6998 0.844482 36.9795 0.844482C41.2589 0.844482 46.4396 1.38364 46.4396 1.38364C46.4396 1.38364 48.0688 5.52954 48.0688 11.3748C48.0688 17.2188 46.4396 21.8272 46.4396 21.8272C46.4396 21.8272 41.4658 22.3672 36.9279 22.3672C32.3889 22.3672 25.7706 21.826 25.7706 21.826L26.815 16.3917C26.815 16.3917 31.4614 16.7417 35.4101 16.7417C39.3576 16.7417 40.9162 16.3917 40.9162 16.3917C40.9162 16.3917 41.1073 15.3557 41.2053 14.2109H31.7243V9.0012H41.246C41.1263 7.66036 40.9771 6.81674 40.9771 6.81674C40.9771 6.81674 37.7252 6.46914 34.9572 6.46914C32.1892 6.46914 26.815 6.81674 26.815 6.81674Z"
        fill="#252069"
    />
    <path
        d="M93 1.34302H94.771V6.35902L98.445 1.34302H100.117V9.04302H98.357V4.03802L94.683 9.04302H93V1.34302Z"
        fill="#E4003C"
    />
    <path
        d="M109.096 1.34302V9.04302H107.314V5.88602H103.816V9.04302H102.034V1.34302H103.816V4.37902H107.314V1.34302H109.096Z"
        fill="#E4003C"
    />
    <path
        d="M116.91 2.79502H114.446V9.04302H112.686V2.79502H110.233V1.34302H116.91V2.79502Z"
        fill="#E4003C"
    />
    <path
        d="M121.362 1.34302C122.044 1.34302 122.635 1.45668 123.133 1.68402C123.639 1.91135 124.028 2.23402 124.299 2.65202C124.571 3.07002 124.706 3.56502 124.706 4.13702C124.706 4.70168 124.571 5.19668 124.299 5.62202C124.028 6.04002 123.639 6.36268 123.133 6.59002C122.635 6.81002 122.044 6.92002 121.362 6.92002H119.811V9.04302H118.029V1.34302H121.362ZM121.263 5.46802C121.799 5.46802 122.206 5.35435 122.484 5.12702C122.763 4.89235 122.902 4.56235 122.902 4.13702C122.902 3.70435 122.763 3.37435 122.484 3.14702C122.206 2.91235 121.799 2.79502 121.263 2.79502H119.811V5.46802H121.263Z"
        fill="#E4003C"
    />
    <path
        d="M130.709 7.39302H127.134L126.452 9.04302H124.626L128.058 1.34302H129.818L133.261 9.04302H131.391L130.709 7.39302ZM130.148 6.04002L128.927 3.09202L127.706 6.04002H130.148Z"
        fill="#E4003C"
    />
    <path
        d="M141.344 1.34302V9.04302H139.562V5.88602H136.064V9.04302H134.282V1.34302H136.064V4.37902H139.562V1.34302H141.344Z"
        fill="#E4003C"
    />
    <path
        d="M149.235 7.61302V9.04302H143.273V1.34302H149.092V2.77302H145.044V4.44502H148.619V5.83102H145.044V7.61302H149.235Z"
        fill="#E4003C"
    />
    <path
        d="M156.56 2.79502H154.096V9.04302H152.336V2.79502H149.883V1.34302H156.56V2.79502Z"
        fill="#E4003C"
    />
    <path
        d="M95.981 18.398H94.749V21.5H92.978V13.8H94.749V16.913H96.025L98.049 13.8H99.93L97.411 17.518L100.007 21.5H97.983L95.981 18.398Z"
        fill="#E4003C"
    />
    <path
        d="M104.484 21.632C103.684 21.632 102.962 21.4597 102.317 21.115C101.679 20.7703 101.176 20.2973 100.81 19.696C100.45 19.0873 100.271 18.4053 100.271 17.65C100.271 16.8947 100.45 16.2163 100.81 15.615C101.176 15.0063 101.679 14.5297 102.317 14.185C102.962 13.8403 103.684 13.668 104.484 13.668C105.283 13.668 106.002 13.8403 106.64 14.185C107.278 14.5297 107.78 15.0063 108.147 15.615C108.513 16.2163 108.697 16.8947 108.697 17.65C108.697 18.4053 108.513 19.0873 108.147 19.696C107.78 20.2973 107.278 20.7703 106.64 21.115C106.002 21.4597 105.283 21.632 104.484 21.632ZM104.484 20.114C104.938 20.114 105.349 20.0113 105.716 19.806C106.082 19.5933 106.368 19.3 106.574 18.926C106.786 18.552 106.893 18.1267 106.893 17.65C106.893 17.1733 106.786 16.748 106.574 16.374C106.368 16 106.082 15.7103 105.716 15.505C105.349 15.2923 104.938 15.186 104.484 15.186C104.029 15.186 103.618 15.2923 103.252 15.505C102.885 15.7103 102.595 16 102.383 16.374C102.177 16.748 102.075 17.1733 102.075 17.65C102.075 18.1267 102.177 18.552 102.383 18.926C102.595 19.3 102.885 19.5933 103.252 19.806C103.618 20.0113 104.029 20.114 104.484 20.114Z"
        fill="#E4003C"
    />
    <path
        d="M117.076 21.5L117.065 16.891L114.799 20.686H114.007L111.741 16.979V21.5H110.069V13.8H111.543L114.425 18.585L117.263 13.8H118.737L118.748 21.5H117.076Z"
        fill="#E4003C"
    />
    <path
        d="M127.679 13.8V21.5H125.908V15.252H122.432V21.5H120.661V13.8H127.679Z"
        fill="#E4003C"
    />
    <path
        d="M134.802 19.85H131.227L130.545 21.5H128.719L132.151 13.8H133.911L137.354 21.5H135.484L134.802 19.85ZM134.241 18.497L133.02 15.549L131.799 18.497H134.241Z"
        fill="#E4003C"
    />
    <path
        d="M145.437 13.8V21.5H143.655V18.343H140.157V21.5H138.375V13.8H140.157V16.836H143.655V13.8H145.437Z"
        fill="#E4003C"
    />
    <path
        d="M147.366 13.8H149.137V18.816L152.811 13.8H154.483V21.5H152.723V16.495L149.049 21.5H147.366V13.8Z"
        fill="#E4003C"
    />
    <path
        d="M156.4 13.8H158.171V18.816L161.845 13.8H163.517V21.5H161.757V16.495L158.083 21.5H156.4V13.8Z"
        fill="#E4003C"
    />
</svg>
