<svg 
width="178" 
height="23" 
xmlns="http://www.w3.org/2000/svg" 
>
 <g class="layer">
  <title>Layer 1</title>
  <path d="m85.63,1.4c0,0 -1.7,-0.2 -3.63,-0.2c-1.94,0 -3.57,0.19 -3.57,0.19l0,6.29l7.2,0l0,-6.28z" fill="#E4003C" id="svg_1"/>
  <path d="m85.63,15.86l-7.2,0l0,5.97c0,0 2.04,0.19 3.66,0.19c1.61,0 3.54,-0.24 3.54,-0.24l0,-5.92z" fill="#E4003C" id="svg_2"/>
  <path d="m75.5,1.39l-8.47,0l-5.91,7.38l-2.73,0l0,-7.38l-7.35,0l0,20.44l7.35,0l0,-7.7l2.65,0l5.93,7.7l9.06,0l-8.84,-10.85l8.31,-9.59z" fill="#ffffff" id="svg_3"/>
  <path d="m23.09,1.39l-23.09,0l0,20.44l7.4,0l0,-14.66l8.29,0l0,14.66l7.4,0l0,-20.44z" fill="#ffffff" id="svg_4" transform="matrix(1 0 0 1 0 0)"/>
  <path d="m26.82,6.82l-1.05,-5.44c0,0 6.93,-0.54 11.21,-0.54c4.28,0 9.46,0.54 9.46,0.54c0,0 1.63,4.15 1.63,9.99c0,5.85 -1.63,10.46 -1.63,10.46c0,0 -4.97,0.54 -9.51,0.54c-4.54,0 -11.16,-0.54 -11.16,-0.54l1.05,-5.44c0,0 4.64,0.35 8.59,0.35c3.95,0 5.51,-0.35 5.51,-0.35c0,0 0.19,-1.03 0.29,-2.18l-9.49,0l0,-5.21l9.53,0c-0.12,-1.34 -0.27,-2.18 -0.27,-2.18c0,0 -3.25,-0.35 -6.02,-0.35c-2.77,0 -8.14,0.35 -8.14,0.35z" fill="#ffffff" id="svg_5" transform="matrix(1 0 0 1 0 0)"/>
  <path d="m93,1.34l1.77,0l0,5.02l3.67,-5.02l1.68,0l0,7.7l-1.76,0l0,-5l-3.68,5l-1.68,0l0,-7.7z" fill="#E4003C" id="svg_6"/>
  <path d="m109.1,1.34l0,7.7l-1.79,0l0,-3.15l-3.49,0l0,3.15l-1.79,0l0,-7.7l1.79,0l0,3.04l3.49,0l0,-3.04l1.79,0z" fill="#E4003C" id="svg_7"/>
  <path d="m116.91,2.8l-2.46,0l0,6.24l-1.76,0l0,-6.24l-2.46,0l0,-1.46l6.68,0l0,1.46z" fill="#E4003C" id="svg_8"/>
  <path d="m121.36,1.34c0.68,0 1.28,0.12 1.77,0.34c0.51,0.23 0.9,0.55 1.17,0.97c0.27,0.42 0.41,0.92 0.41,1.49c0,0.56 -0.14,1.06 -0.41,1.48c-0.27,0.42 -0.66,0.74 -1.17,0.97c-0.49,0.22 -1.09,0.33 -1.77,0.33l-1.55,0l0,2.12l-1.78,0l0,-7.7l3.33,0zm-0.1,4.13c0.54,0 0.95,-0.12 1.22,-0.34c0.28,-0.24 0.42,-0.57 0.42,-0.99c0,-0.44 -0.14,-0.77 -0.42,-0.99c-0.27,-0.24 -0.68,-0.35 -1.22,-0.35l-1.45,0l0,2.67l1.45,0z" fill="#E4003C" id="svg_9"/>
  <path d="m130.71,7.39l-3.58,0l-0.68,1.65l-1.82,0l3.43,-7.7l1.76,0l3.44,7.7l-1.87,0l-0.68,-1.65zm-0.56,-1.35l-1.22,-2.95l-1.22,2.95l2.44,0z" fill="#E4003C" id="svg_10"/>
  <path d="m141.34,1.34l0,7.7l-1.78,0l0,-3.15l-3.5,0l0,3.15l-1.78,0l0,-7.7l1.78,0l0,3.04l3.5,0l0,-3.04l1.78,0z" fill="#E4003C" id="svg_11"/>
  <path d="m149.24,7.61l0,1.43l-5.97,0l0,-7.7l5.82,0l0,1.43l-4.05,0l0,1.68l3.58,0l0,1.38l-3.58,0l0,1.78l4.2,0z" fill="#E4003C" id="svg_12"/>
  <path d="m156.56,2.8l-2.46,0l0,6.24l-1.76,0l0,-6.24l-2.46,0l0,-1.46l6.68,0l0,1.46z" fill="#E4003C" id="svg_13"/>
  <path d="m95.98,18.4l-1.23,0l0,3.1l-1.77,0l0,-7.7l1.77,0l0,3.11l1.28,0l2.02,-3.11l1.88,0l-2.52,3.72l2.6,3.98l-2.03,0l-2,-3.1z" fill="#E4003C" id="svg_14"/>
  <path d="m104.48,21.63c-0.8,0 -1.52,-0.17 -2.16,-0.52c-0.64,-0.34 -1.14,-0.81 -1.51,-1.41c-0.36,-0.61 -0.54,-1.29 -0.54,-2.05c0,-0.76 0.18,-1.43 0.54,-2.03c0.37,-0.61 0.87,-1.09 1.51,-1.43c0.64,-0.35 1.36,-0.52 2.16,-0.52c0.8,0 1.52,0.17 2.16,0.52c0.64,0.34 1.14,0.82 1.51,1.43c0.36,0.6 0.55,1.27 0.55,2.03c0,0.76 -0.19,1.44 -0.55,2.05c-0.37,0.6 -0.87,1.07 -1.51,1.41c-0.64,0.35 -1.36,0.52 -2.16,0.52zm0,-1.52c0.46,0 0.87,-0.1 1.24,-0.3c0.36,-0.22 0.65,-0.51 0.85,-0.88c0.22,-0.38 0.32,-0.8 0.32,-1.28c0,-0.48 -0.1,-0.9 -0.32,-1.28c-0.2,-0.37 -0.49,-0.66 -0.85,-0.86c-0.37,-0.22 -0.78,-0.32 -1.24,-0.32c-0.45,0 -0.86,0.1 -1.23,0.32c-0.36,0.2 -0.66,0.49 -0.87,0.86c-0.2,0.38 -0.3,0.8 -0.3,1.28c0,0.48 0.1,0.9 0.3,1.28c0.21,0.37 0.51,0.66 0.87,0.88c0.37,0.2 0.78,0.3 1.23,0.3z" fill="#E4003C" id="svg_15"/>
  <path d="m117.08,21.5l-0.02,-4.61l-2.26,3.8l-0.79,0l-2.27,-3.71l0,4.52l-1.67,0l0,-7.7l1.47,0l2.88,4.79l2.84,-4.79l1.48,0l0.01,7.7l-1.67,0z" fill="#E4003C" id="svg_16"/>
  <path d="m127.68,13.8l0,7.7l-1.77,0l0,-6.25l-3.48,0l0,6.25l-1.77,0l0,-7.7l7.02,0z" fill="#E4003C" id="svg_17"/>
  <path d="m134.8,19.85l-3.57,0l-0.69,1.65l-1.82,0l3.43,-7.7l1.76,0l3.44,7.7l-1.87,0l-0.68,-1.65zm-0.56,-1.35l-1.22,-2.95l-1.22,2.95l2.44,0z" fill="#E4003C" id="svg_18"/>
  <path d="m145.44,13.8l0,7.7l-1.78,0l0,-3.16l-3.5,0l0,3.16l-1.78,0l0,-7.7l1.78,0l0,3.04l3.5,0l0,-3.04l1.78,0z" fill="#E4003C" id="svg_19"/>
  <path d="m147.37,13.8l1.77,0l0,5.02l3.67,-5.02l1.67,0l0,7.7l-1.76,0l0,-5l-3.67,5l-1.68,0l0,-7.7z" fill="#E4003C" id="svg_20"/>
  <path d="m156.4,13.8l1.77,0l0,5.02l3.67,-5.02l1.68,0l0,7.7l-1.76,0l0,-5l-3.68,5l-1.68,0l0,-7.7z" fill="#E4003C" id="svg_21"/>
 </g>
</svg>