<svg width="512" height="512" xmlns="http://www.w3.org/2000/svg" version="1.1">
 <g class="layer">
  <title>Layer 1</title>
  <path d="m252.12,12c-1.86,0.44 -4.64,2.08 -6.18,3.65c-1.83,1.87 -13.72,26.99 -34.47,72.85c-17.42,38.5 -32.61,71.69 -33.76,73.75c-3.83,6.91 -2.66,6.7 -88.71,16.24c-58.72,6.51 -79.23,9.12 -81.39,10.36c-2.89,1.64 -7.37,6.78 -6.54,7.49c0.23,0.21 57.35,16.68 126.93,36.61c69.57,19.92 126.68,36.4 126.9,36.62c0.57,0.56 2.13,-1.71 -80.59,117.22c-41.58,59.79 -75.65,109.37 -75.7,110.18c-0.07,0.87 1.52,2.01 3.86,2.79c3.3,1.11 4.64,1.11 8,-0.01c2.22,-0.73 34.41,-18.61 71.53,-39.71c37.13,-21.11 68.96,-38.83 70.75,-39.38l3.25,-1l0,-204.33c0,-112.38 -0.11,-204.28 -0.25,-204.23c-0.14,0.06 -1.77,0.46 -3.63,0.9" fill="#fceb6b" fill-rule="evenodd" id="svg_1"/>
  <path d="m256,215.48l0,204.27l2.97,0.59c1.63,0.33 33.92,18.22 71.75,39.76c60.49,34.44 69.38,39.21 73.78,39.59c3.83,0.32 5.76,-0.06 8.26,-1.63c4.07,-2.55 7.23,-7.62 7.24,-11.59c0,-1.67 -7.2,-38.07 -16,-80.89c-14.11,-68.65 -15.88,-78.31 -14.96,-81.71c0.91,-3.39 8.26,-10.45 59.75,-57.37c32.29,-29.43 59.93,-55.19 61.43,-57.25c2.06,-2.84 2.72,-4.94 2.75,-8.67c0.02,-2.7 -0.25,-4.63 -0.6,-4.29c-0.34,0.35 -1.58,-0.79 -2.75,-2.53c-4.24,-6.29 -2.43,-5.97 -86.12,-15.23c-46.55,-5.15 -79.73,-9.25 -82.29,-10.18c-2.36,-0.85 -4.93,-2.51 -5.7,-3.7c-0.77,-1.18 -16.09,-34.55 -34.03,-74.15c-21.18,-46.76 -33.59,-72.99 -35.39,-74.82c-1.52,-1.55 -4.41,-3.19 -6.43,-3.64l-3.66,-0.83l0,204.27m-255,-12.61c0,5.28 0.37,6.49 2.75,9.01c1.51,1.6 28.72,26.58 60.46,55.51c50.56,46.09 57.84,53.09 58.75,56.47c0.92,3.39 -0.86,13.1 -14.96,81.75c-8.8,42.84 -16,79.15 -16,80.69c0,3.08 2.07,7.69 4.29,9.52c1.17,0.98 14.91,-18.23 79.55,-111.2c42.97,-61.81 78.41,-113.11 78.75,-114c0.34,-0.89 0.33,-1.62 -0.04,-1.62c-0.36,0 -56.55,-16.04 -124.86,-35.64c-68.3,-19.61 -125.2,-35.86 -126.44,-36.12c-2.14,-0.45 -2.25,-0.17 -2.25,5.63" fill="#fcb01a" fill-rule="evenodd" id="svg_2"/>
 </g>
</svg>