<svg width="278" height="275" xmlns="http://www.w3.org/2000/svg" version="1.1">
 <g class="layer">
  <title>Layer 1</title>
  <path d="m130.57,20.17c-0.23,0.73 -0.71,3.88 -1.06,7c-1.01,9.02 -4.56,8.67 -7.95,-0.77c-2.98,-8.32 -4.56,-8.18 -4.56,0.39c0,4.97 -0.43,7.32 -1.5,8.21c-2.09,1.73 -3.7,0.19 -6.93,-6.62c-3.13,-6.62 -5.27,-6.75 -4.64,-0.28c0.89,9.23 0.72,10.38 -1.61,10.71c-1.7,0.24 -2.96,-0.91 -5.74,-5.25c-4.2,-6.57 -6.06,-7.22 -5.2,-1.81c2.06,12.9 2.09,12.25 -0.54,12.25c-1.74,0 -3.51,-1.42 -6.24,-5c-2.1,-2.75 -4.19,-5 -4.65,-5c-1.89,0 -1.87,2.14 0.08,7.09c4.07,10.3 1.38,12.31 -6.49,4.86c-6.55,-6.2 -8.15,-5.06 -4.11,2.92c4.99,9.84 2.55,11.79 -6.36,5.09c-6.99,-5.26 -8.48,-3.97 -3.67,3.17c6.28,9.33 4.08,12.16 -5.1,6.55c-8.44,-5.17 -9.9,-3.45 -3.22,3.79c6.88,7.46 4.04,10.56 -5.63,6.14c-7.42,-3.4 -8.33,-1.39 -2.02,4.43c7.67,7.07 5.67,10.58 -4.04,7.09c-5.44,-1.96 -7.39,-2.01 -7.39,-0.19c0,0.45 2.48,2.69 5.5,4.97c3.02,2.29 5.5,4.78 5.5,5.56c0,2.2 -3.53,2.77 -9.49,1.53c-9.04,-1.87 -9.76,0.32 -1.48,4.52c9.8,4.96 8.45,9.12 -2.58,7.94c-6,-0.65 -6.61,-0.54 -6.3,1.03c0.21,1.03 2.42,2.55 5.35,3.68c5.84,2.26 8.02,4.49 6.36,6.5c-0.61,0.73 -2.51,1.33 -4.23,1.34c-5.42,0.02 -10.72,1.22 -10.35,2.34c0.2,0.6 3.17,1.91 6.59,2.92c9.89,2.91 9.42,7.04 -0.92,8.23c-9.51,1.11 -9.18,3.74 0.63,4.97c5.31,0.66 7.96,2.4 7.2,4.7c-0.23,0.68 -3.28,2.16 -6.78,3.29c-8.75,2.81 -9,4.54 -0.66,4.54c4.6,0 6.98,0.46 8.1,1.58c2.32,2.32 0.66,4.38 -5.56,6.88c-2.96,1.19 -5.51,2.87 -5.68,3.74c-0.26,1.35 0.64,1.5 6.23,1.05c10.96,-0.88 12.24,2.5 2.97,7.81c-2.97,1.7 -5.4,3.78 -5.4,4.62c0,1.02 0.56,1.32 1.67,0.89c0.91,-0.35 4.28,-0.91 7.48,-1.24c5.04,-0.53 5.9,-0.37 6.51,1.23c0.52,1.36 -0.15,2.5 -2.6,4.39c-10.29,7.96 -10.54,9.42 -1.14,6.58c10.07,-3.06 12.3,0.47 4.58,7.26c-4.2,3.7 -5.67,6.21 -3.62,6.21c0.48,0 3.39,-1.12 6.47,-2.48c9.35,-4.13 11.7,-0.55 4.65,7.1c-6.38,6.92 -5.2,8.33 2.85,3.38c9.4,-5.79 12,-2.71 5.66,6.71c-4.16,6.17 -3.05,7.86 2.32,3.56c5.99,-4.81 7.79,-5.51 9.56,-3.74c1.64,1.64 1.54,2.04 -2.36,9.7c-1.32,2.6 -2.1,5.03 -1.73,5.4c0.37,0.37 2.91,-1.42 5.64,-3.98c8.39,-7.85 11.54,-5.83 7.53,4.83c-3.06,8.14 -1.58,8.65 4.43,1.52c2.32,-2.75 4.85,-5 5.62,-5c2.75,0 3.44,3.38 1.83,8.87c-2.5,8.55 -0.9,9.57 3.67,2.34c5.81,-9.19 9.99,-8.11 8.44,2.19c-0.36,2.43 -0.25,5.15 0.25,6.05c0.74,1.31 1.49,0.5 3.85,-4.16c2.4,-4.73 3.4,-5.79 5.44,-5.79c2.41,0 2.51,0.26 2.8,7.32c0.35,8.82 1.63,9 4.59,0.63c1.61,-4.54 2.63,-6.02 4.29,-6.26c2.97,-0.42 4.71,3.1 4.44,8.97c-0.29,6.42 2.82,8.42 3.33,2.15c0.33,-4.02 1.55,-7.54 3.29,-9.53c2.62,-2.98 4.88,-0.59 6.33,6.69c0.71,3.59 1.62,6.53 2.01,6.53c1.09,0 1.92,-2.81 1.92,-6.52c0,-5.02 1.63,-8.48 3.99,-8.48c2.01,0 3.07,1.7 6.05,9.75c1.88,5.08 2.85,3.87 3.17,-4c0.28,-6.99 0.38,-7.25 2.79,-7.25c2.03,0 3.07,1.08 5.5,5.75c1.65,3.16 3.4,5.75 3.89,5.75c0.49,0 0.59,-2.91 0.21,-6.6c-0.69,-6.77 0.15,-9.4 3.03,-9.4c0.77,0 2.96,2.44 4.87,5.43c5.49,8.59 5.86,8.16 3.96,-4.55c-1.18,-7.91 2.71,-7.83 8.87,0.17c2.11,2.73 4.23,4.72 4.72,4.42c0.49,-0.3 -0.15,-3.41 -1.42,-6.92c-2.38,-6.53 -2.07,-9.55 0.96,-9.55c0.82,0 3.73,2.09 6.47,4.65c2.73,2.56 5.28,4.35 5.65,3.97c0.37,-0.37 -0.53,-3.15 -2.02,-6.17c-1.48,-3.02 -2.69,-6.38 -2.69,-7.47c0,-3.15 4.08,-2.44 9.28,1.61c6.25,4.87 7.53,3.6 3.11,-3.06c-5.85,-8.8 -3.1,-12.12 5.49,-6.61c8.12,5.21 9.62,3.52 3.12,-3.54c-6.99,-7.58 -4.68,-10.98 4.65,-6.86c3.08,1.36 5.99,2.48 6.47,2.48c2.16,0 0.51,-2.89 -3.62,-6.34c-7.58,-6.33 -5.45,-10.27 3.95,-7.31c9.31,2.94 10.18,1.54 2.5,-3.98c-3.74,-2.69 -4.98,-4.18 -4.75,-5.75c0.31,-2.23 2.56,-2.55 10.8,-1.55c5.41,0.66 5.04,-1.12 -1,-4.75c-4.07,-2.44 -5.5,-3.89 -5.5,-5.56c0,-2.14 0.38,-2.26 7.41,-2.26c4.16,0 7.56,-0.45 7.76,-1.02c0.19,-0.57 -2.55,-2.29 -6.08,-3.83c-10.14,-4.41 -9.52,-7.27 1.79,-8.32c9.26,-0.87 8.53,-2.64 -2.18,-5.35c-8.12,-2.05 -6.47,-6.4 2.85,-7.48c9.52,-1.11 9.11,-3.84 -0.76,-5.07c-9.64,-1.2 -9.49,-5.34 0.28,-7.99c8.41,-2.27 8.31,-3.97 -0.25,-4.77c-3.67,-0.35 -7.15,-1.1 -7.73,-1.68c-1.77,-1.77 0.69,-4.28 6.5,-6.61c7.89,-3.18 7.16,-4.88 -2.09,-4.88c-6.92,0 -7.52,-0.17 -7.81,-2.16c-0.25,-1.74 0.87,-2.79 5.75,-5.39c7.34,-3.91 8.23,-6.53 1.81,-5.33c-7.9,1.47 -11.22,1.12 -11.55,-1.21c-0.22,-1.57 1.08,-3.05 5.18,-5.87c3.59,-2.48 5.28,-4.26 4.92,-5.21c-0.31,-0.8 -1.06,-1.26 -1.68,-1.03c-15.38,5.65 -19.11,3.75 -9.68,-4.93c6.6,-6.09 5.9,-8.16 -1.65,-4.82c-10.64,4.71 -12.96,2.29 -5.82,-6.06c3.82,-4.48 4.39,-5.61 3.07,-6.11c-0.96,-0.37 -3.69,0.66 -6.65,2.5c-5.76,3.58 -6.19,3.67 -7.9,1.61c-1.04,-1.26 -0.63,-2.45 2.38,-6.99c2,-3.01 3.63,-5.93 3.63,-6.48c0,-1.95 -2.75,-1 -7.11,2.47c-8.03,6.39 -10.92,3.81 -6.03,-5.38c2.89,-5.41 3.11,-7.11 0.93,-7.11c-0.48,0 -3.1,2.08 -5.81,4.62c-3.1,2.89 -5.5,4.39 -6.46,4.03c-2.03,-0.78 -1.92,-2.51 0.59,-9.21c2.95,-7.88 1.3,-8.9 -4.06,-2.5c-4.01,4.79 -7.17,6.29 -8.55,4.06c-0.34,-0.55 0.09,-3.74 0.94,-7.09c2.48,-9.65 0.36,-10.8 -4.44,-2.41c-2.51,4.39 -3.66,5.5 -5.68,5.5c-2.51,0 -2.53,-0.06 -2.17,-7.25c0.2,-4.2 -0.07,-7.46 -0.65,-7.75c-0.55,-0.27 -2.36,2.2 -4.03,5.5c-2.16,4.28 -3.59,6 -5,6c-1.74,0 -2.03,-0.87 -2.47,-7.5c-0.62,-9.29 -2.46,-10.01 -5.17,-2.02c-2.34,6.88 -4.11,8.87 -6.28,7.06c-0.85,-0.71 -1.55,-2.47 -1.56,-3.91c-0.02,-5.29 -1.27,-10.13 -2.6,-10.13c-1.34,0 -1.69,0.93 -3.17,8.41c-0.87,4.38 -3.45,6.76 -5.32,4.89c-0.63,-0.63 -1.67,-3.74 -2.3,-6.9c-1.1,-5.48 -3.11,-8.09 -4.03,-5.23m1.43,24.51c-6.52,1.06 -15.91,3.66 -19.71,5.46c-7.62,3.62 -10.16,10.92 -6.22,17.86l1.99,3.5l-0.61,-3.25c-0.81,-4.34 0.45,-4.04 3.88,0.91c3.46,5.01 5.2,4 4.79,-2.77c-0.33,-5.34 1.08,-5.24 3.38,0.25c1.02,2.46 2,3.41 3.23,3.16c1.37,-0.27 1.77,-1.34 1.77,-4.74c0,-2.62 0.5,-4.56 1.25,-4.81c0.69,-0.23 1.25,0.32 1.25,1.22c0,2.62 3.01,7.69 4.31,7.27c0.65,-0.22 1.41,-2.38 1.69,-4.82c0.63,-5.58 2.23,-5.65 3.39,-0.15c1.23,5.8 3.98,5.83 5.22,0.06c1.27,-5.93 3.39,-6.22 3.39,-0.47c0,7.1 3.22,7.33 5.57,0.41c1.61,-4.75 3.64,-4.82 3.42,-0.13c-0.27,5.74 -0.13,6.36 1.49,6.36c0.81,0 2.4,-1.8 3.52,-4c1.12,-2.2 2.41,-4 2.87,-4c0.46,0 0.63,2.19 0.37,4.87c-0.62,6.46 1,7.26 4.49,2.21c4.1,-5.92 5.55,-5.07 3.15,1.85c-0.84,2.38 -0.84,3.51 0,4.35c0.83,0.83 2.19,0.1 5.25,-2.83l4.12,-3.95l-0.69,3c-1.73,7.6 -1.78,8.5 -0.47,8.5c0.72,0 2.79,-1.43 4.6,-3.18c4.16,-4.04 5.33,-2.98 2.43,2.19c-3.51,6.23 -1.38,7.82 4.47,3.35c4.56,-3.48 5.35,-2.38 1.97,2.73c-3.67,5.54 -2.21,7.21 3.5,4c5.06,-2.84 6,-2.13 2.56,1.94c-4.61,5.49 -3.13,7.33 3.63,4.51c4.94,-2.06 5.38,-0.76 1.09,3.17c-4.69,4.3 -3.57,6.1 2.82,4.48c2.35,-0.6 4.5,-0.86 4.78,-0.58c0.28,0.28 -1.28,2.02 -3.46,3.87c-4.96,4.19 -3.99,6.1 2.37,4.67c5.58,-1.26 6.14,0.23 1.17,3.05c-5.24,2.98 -4.99,5.4 0.52,5.05c6.61,-0.43 7.49,0.69 2.46,3.11c-6.06,2.92 -5.94,5.05 0.31,5.45c5.14,0.32 6,2.09 1.62,3.31c-2.16,0.61 -2.06,0.69 0.87,0.78c7.94,0.24 13.16,-7.04 11.75,-16.4c-1.8,-12 -8.17,-26.26 -15.9,-35.62c-9.66,-11.68 -31.54,-26.05 -48.29,-31.72c-10.34,-3.5 -22.75,-4.88 -31.36,-3.48m-53.85,23.94c-5.71,2.5 -19.17,17.54 -23.72,26.51c-1.32,2.62 -3.61,8.72 -5.08,13.56c-2.48,8.16 -2.68,10.21 -2.76,27.81c-0.14,29.38 3.78,41.54 19.03,58.98c9.99,11.42 17.23,14.72 24.31,11.06c1.55,-0.81 3.11,-2.19 3.45,-3.08c0.88,-2.3 0.8,-2.47 -0.88,-1.82c-2.03,0.78 -1.89,-0.17 0.72,-4.81c1.87,-3.33 1.99,-4.08 0.77,-4.83c-0.99,-0.62 -2.47,-0.11 -4.74,1.63c-4.58,3.49 -5.77,2.6 -2.66,-1.98c1.97,-2.9 2.33,-4.13 1.47,-4.99c-0.87,-0.87 -2.17,-0.6 -5.27,1.1c-6.02,3.29 -6.07,2.47 -0.31,-5.37c0.65,-0.89 0.6,-1.71 -0.13,-2.44c-0.82,-0.82 -2.18,-0.57 -5.11,0.93c-5.44,2.77 -6.05,1.53 -1.52,-3.11c4.6,-4.71 3.35,-6.3 -3.38,-4.27c-5.25,1.58 -5.54,0.52 -0.84,-3.07c5.4,-4.12 4.72,-5.81 -2,-4.97c-3.03,0.38 -5.5,0.31 -5.5,-0.14c0,-0.45 1.69,-1.72 3.75,-2.82c5.54,-2.96 4.92,-4.89 -1.75,-5.5l-5.5,-0.5l4.75,-2.19c2.61,-1.21 4.75,-2.87 4.75,-3.7c0,-1.08 -1.33,-1.59 -4.75,-1.8c-5.64,-0.37 -5.9,-1.88 -0.58,-3.4c2.18,-0.62 3.97,-1.81 4.15,-2.75c0.36,-1.81 -0.36,-2.18 -6.17,-3.15c-4.54,-0.75 -4.06,-1.62 1.68,-3c5.49,-1.33 5.46,-3.6 -0.08,-5.35c-2.34,-0.75 -4.25,-1.73 -4.25,-2.2c0,-0.47 2.13,-0.99 4.74,-1.15c6.35,-0.41 6.98,-2.9 1.31,-5.17c-5.1,-2.04 -5.25,-3.85 -0.3,-3.62c5.63,0.26 6.25,0.11 6.25,-1.5c0,-0.81 -1.82,-2.41 -4.03,-3.54c-5.01,-2.55 -4.41,-3.97 1.25,-2.94c6.89,1.26 7.96,-1.05 2.27,-4.92c-1.92,-1.31 -3.49,-2.77 -3.49,-3.25c0,-1.13 0.5,-1.1 5.17,0.3c3.03,0.91 4.16,0.89 5.11,-0.07c0.96,-0.97 0.53,-1.85 -2.03,-4.15c-4.79,-4.31 -4.34,-6.36 0.75,-3.45c5.92,3.38 8.1,0.31 3.32,-4.69c-2.9,-3.03 -2.43,-4.98 0.73,-3.02c1.07,0.66 2.84,1.76 3.92,2.43c1.53,0.95 2.25,0.96 3.17,0.05c0.91,-0.92 0.55,-2.14 -1.56,-5.32c-4.07,-6.16 -2.88,-6.28 5.03,-0.47c0.89,0.65 1.71,0.6 2.44,-0.13c0.81,-0.82 0.54,-2.24 -1.04,-5.33c-2.58,-5.07 -1.95,-6.24 1.6,-2.94l2.61,2.42l-2.81,-4.68c-4.1,-6.84 -8.95,-8.38 -16.26,-5.2m46.58,14.26c-3.73,0.97 -7.19,2.18 -7.69,2.69c-0.56,0.57 2.62,7.41 8.1,17.43c12.13,22.21 12.75,23.08 18.97,26.48l5.39,2.95l22.99,-0.29c12.65,-0.16 23.15,-0.44 23.33,-0.63c0.8,-0.8 -3.11,-13.55 -5.99,-19.51c-4.28,-8.86 -15.89,-20.32 -25.08,-24.76c-13,-6.28 -26.87,-7.79 -40.02,-4.36m-26.95,15.97c-11.52,12.22 -16.37,25.52 -15.53,42.64c0.7,14.35 5.37,25.45 15.36,36.51c6.75,7.46 5.86,8.09 18.26,-12.87c16.2,-27.38 16.21,-27.93 1.06,-53.52c-5.57,-9.41 -10.69,-17.69 -11.37,-18.41c-0.99,-1.05 -2.48,0.03 -7.78,5.65m37.42,35.35c-0.66,0.66 -1.2,2.37 -1.2,3.8c0,5.27 5.69,6.93 8.59,2.5c1.52,-2.32 1.52,-2.68 0,-5c-1.75,-2.68 -5.37,-3.32 -7.39,-1.3m9.3,12.18c-2.75,1.29 -5.98,3.43 -7.18,4.74c-1.73,1.88 -22.32,38.16 -22.32,39.32c0,0.15 3.26,1.31 7.25,2.57c14.39,4.55 31.88,2.59 45.34,-5.07c14.01,-7.98 25.27,-24.01 27.88,-39.69l0.71,-4.25l-23.34,0.01c-22.43,0.01 -23.53,0.1 -28.34,2.37m70.43,-0.5c4.65,1.3 3.57,3.12 -1.85,3.12c-6.66,0 -6.89,2.31 -0.5,5.14c5.39,2.38 5.05,3.36 -1.01,2.99c-5.17,-0.32 -6.91,1.43 -3.76,3.78c7.29,5.46 7.21,5.22 1.55,4.54c-6.99,-0.83 -7.91,0.87 -2.8,5.16c4.64,3.9 4.21,4.93 -1.25,3c-6.35,-2.24 -7.6,-0.52 -3.03,4.16c4.5,4.61 3.92,5.88 -1.44,3.15c-6.19,-3.16 -7.6,-1.1 -3.2,4.67c1.45,1.91 2.39,3.71 2.09,4.02c-0.31,0.3 -2.38,-0.5 -4.6,-1.78c-3.04,-1.75 -4.32,-2.04 -5.19,-1.17c-0.86,0.86 -0.51,2.08 1.41,4.91c3.22,4.74 2.44,6.27 -1.5,2.96c-3.19,-2.68 -6.85,-3.37 -6.85,-1.28c0.01,0.69 0.91,2.72 2,4.52c2.36,3.87 2.42,4.23 0.67,4.23c-0.73,0 -2.38,-1.12 -3.67,-2.5c-4.25,-4.52 -6.6,-2.1 -3.84,3.96c1.83,4 -0.03,4.38 -3.09,0.62c-1.99,-2.43 -3.28,-3.21 -4.53,-2.73c-1.75,0.67 -1.75,0.86 0.07,7.4c0.97,3.51 -1.4,2.72 -3.74,-1.25c-2.04,-3.45 -4.78,-4.69 -4.96,-2.25c-0.05,0.69 -0.04,3.28 0.02,5.75c0.13,4.93 -0.51,4.62 -4.2,-2.03c-1.5,-2.72 -1.99,-3 -3.32,-1.9c-1.03,0.86 -1.44,2.56 -1.23,5.08c0.44,5.22 -1.21,5.25 -2.95,0.05c-1.94,-5.83 -4.54,-5.43 -5.23,0.81c-0.62,5.56 -2.09,5.47 -3.46,-0.21c-1.4,-5.78 -3.7,-5.69 -5.13,0.2c-1.38,5.74 -2.77,5.75 -3.41,0.01c-0.68,-6.12 -3.28,-6.66 -5.15,-1.06c-1.63,4.9 -3.31,4.87 -3.46,-0.07c-0.21,-7.04 -2.12,-7.29 -5.47,-0.72c-1.14,2.22 -2.34,3.75 -2.68,3.41c-0.34,-0.34 -0.5,-2.86 -0.36,-5.59c0.33,-6.13 -1.64,-6.73 -4.88,-1.48c-1.19,1.93 -2.62,3.5 -3.19,3.5c-0.95,0 -0.83,-1.11 0.8,-7.5c0.28,-1.1 -0.94,0.41 -2.7,3.37c-3.63,6.07 -3.97,10.23 -1.13,14.06c7.47,10.09 33.47,14.63 52.7,9.2c26.3,-7.42 52.48,-27 61.9,-46.32c3.4,-6.96 7.57,-21.3 7.6,-26.13c0.04,-7.36 -4.4,-12.73 -10.4,-12.58c-3.24,0.08 -3.58,0.24 -1.65,0.78" fill="#babbbf" fill-rule="evenodd" id="svg_1"/>
  <path d="m117.5,10.45c-17,3.28 -29.91,7.82 -41.93,14.75c-33.9,19.52 -56.49,50.97 -64.18,89.35c-2.12,10.55 -2.06,33.91 0.11,46.5c7.97,46.11 42.19,85.14 87.68,100.01c13.23,4.32 24.14,5.94 40.04,5.94c28.69,0 53.94,-8.43 76.85,-25.66c24.68,-18.56 40.59,-42.82 48.56,-74.08c2.47,-9.65 2.76,-12.57 2.81,-28.26c0.05,-13.14 -0.38,-19.53 -1.7,-25.66c-11,-50.91 -47.63,-88.93 -97.74,-101.42c-10.91,-2.72 -39.7,-3.56 -50.5,-1.47m13.07,9.72c-0.23,0.73 -0.71,3.88 -1.06,7c-1.01,9.02 -4.56,8.67 -7.95,-0.77c-2.98,-8.32 -4.56,-8.18 -4.56,0.39c0,4.97 -0.43,7.32 -1.5,8.21c-2.09,1.73 -3.7,0.19 -6.93,-6.62c-3.13,-6.62 -5.27,-6.75 -4.64,-0.28c0.89,9.23 0.72,10.38 -1.61,10.71c-1.7,0.24 -2.96,-0.91 -5.74,-5.25c-4.2,-6.57 -6.06,-7.22 -5.2,-1.81c2.06,12.9 2.09,12.25 -0.54,12.25c-1.74,0 -3.51,-1.42 -6.24,-5c-2.1,-2.75 -4.19,-5 -4.65,-5c-1.89,0 -1.87,2.14 0.08,7.09c4.07,10.3 1.38,12.31 -6.49,4.86c-6.55,-6.2 -8.15,-5.06 -4.11,2.92c4.99,9.84 2.55,11.79 -6.36,5.09c-6.99,-5.26 -8.48,-3.97 -3.67,3.17c6.28,9.33 4.08,12.16 -5.1,6.55c-8.44,-5.17 -9.9,-3.45 -3.22,3.79c6.88,7.46 4.04,10.56 -5.63,6.14c-7.42,-3.4 -8.33,-1.39 -2.02,4.43c7.67,7.07 5.67,10.58 -4.04,7.09c-5.44,-1.96 -7.39,-2.01 -7.39,-0.19c0,0.45 2.48,2.69 5.5,4.97c3.02,2.29 5.5,4.78 5.5,5.56c0,2.2 -3.53,2.77 -9.49,1.53c-9.04,-1.87 -9.76,0.32 -1.48,4.52c9.8,4.96 8.45,9.12 -2.58,7.94c-6,-0.65 -6.61,-0.54 -6.3,1.03c0.21,1.03 2.42,2.55 5.35,3.68c5.84,2.26 8.02,4.49 6.36,6.5c-0.61,0.73 -2.51,1.33 -4.23,1.34c-5.42,0.02 -10.72,1.22 -10.35,2.34c0.2,0.6 3.17,1.91 6.59,2.92c9.89,2.91 9.42,7.04 -0.92,8.23c-9.51,1.11 -9.18,3.74 0.63,4.97c5.31,0.66 7.96,2.4 7.2,4.7c-0.23,0.68 -3.28,2.16 -6.78,3.29c-8.75,2.81 -9,4.54 -0.66,4.54c4.6,0 6.98,0.46 8.1,1.58c2.32,2.32 0.66,4.38 -5.56,6.88c-2.96,1.19 -5.51,2.87 -5.68,3.74c-0.26,1.35 0.64,1.5 6.23,1.05c10.96,-0.88 12.24,2.5 2.97,7.81c-2.97,1.7 -5.4,3.78 -5.4,4.62c0,1.02 0.56,1.32 1.67,0.89c0.91,-0.35 4.28,-0.91 7.48,-1.24c5.04,-0.53 5.9,-0.37 6.51,1.23c0.52,1.36 -0.15,2.5 -2.6,4.39c-10.29,7.96 -10.54,9.42 -1.14,6.58c10.07,-3.06 12.3,0.47 4.58,7.26c-4.2,3.7 -5.67,6.21 -3.62,6.21c0.48,0 3.39,-1.12 6.47,-2.48c9.35,-4.13 11.7,-0.55 4.65,7.1c-6.38,6.92 -5.2,8.33 2.85,3.38c9.4,-5.79 12,-2.71 5.66,6.71c-4.16,6.17 -3.05,7.86 2.32,3.56c5.99,-4.81 7.79,-5.51 9.56,-3.74c1.64,1.64 1.54,2.04 -2.36,9.7c-1.32,2.6 -2.1,5.03 -1.73,5.4c0.37,0.37 2.91,-1.42 5.64,-3.98c8.39,-7.85 11.54,-5.83 7.53,4.83c-3.06,8.14 -1.58,8.65 4.43,1.52c2.32,-2.75 4.85,-5 5.62,-5c2.75,0 3.44,3.38 1.83,8.87c-2.5,8.55 -0.9,9.57 3.67,2.34c5.81,-9.19 9.99,-8.11 8.44,2.19c-0.36,2.43 -0.25,5.15 0.25,6.05c0.74,1.31 1.49,0.5 3.85,-4.16c2.4,-4.73 3.4,-5.79 5.44,-5.79c2.41,0 2.51,0.26 2.8,7.32c0.35,8.82 1.63,9 4.59,0.63c1.61,-4.54 2.63,-6.02 4.29,-6.26c2.97,-0.42 4.71,3.1 4.44,8.97c-0.29,6.42 2.82,8.42 3.33,2.15c0.33,-4.02 1.55,-7.54 3.29,-9.53c2.62,-2.98 4.88,-0.59 6.33,6.69c0.71,3.59 1.62,6.53 2.01,6.53c1.09,0 1.92,-2.81 1.92,-6.52c0,-5.02 1.63,-8.48 3.99,-8.48c2.01,0 3.07,1.7 6.05,9.75c1.88,5.08 2.85,3.87 3.17,-4c0.28,-6.99 0.38,-7.25 2.79,-7.25c2.03,0 3.07,1.08 5.5,5.75c1.65,3.16 3.4,5.75 3.89,5.75c0.49,0 0.59,-2.91 0.21,-6.6c-0.69,-6.77 0.15,-9.4 3.03,-9.4c0.77,0 2.96,2.44 4.87,5.43c5.49,8.59 5.86,8.16 3.96,-4.55c-1.18,-7.91 2.71,-7.83 8.87,0.17c2.11,2.73 4.23,4.72 4.72,4.42c0.49,-0.3 -0.15,-3.41 -1.42,-6.92c-2.38,-6.53 -2.07,-9.55 0.96,-9.55c0.82,0 3.73,2.09 6.47,4.65c2.73,2.56 5.28,4.35 5.65,3.97c0.37,-0.37 -0.53,-3.15 -2.02,-6.17c-1.48,-3.02 -2.69,-6.38 -2.69,-7.47c0,-3.15 4.08,-2.44 9.28,1.61c6.25,4.87 7.53,3.6 3.11,-3.06c-5.85,-8.8 -3.1,-12.12 5.49,-6.61c8.12,5.21 9.62,3.52 3.12,-3.54c-6.99,-7.58 -4.68,-10.98 4.65,-6.86c3.08,1.36 5.99,2.48 6.47,2.48c2.16,0 0.51,-2.89 -3.62,-6.34c-7.58,-6.33 -5.45,-10.27 3.95,-7.31c9.31,2.94 10.18,1.54 2.5,-3.98c-3.74,-2.69 -4.98,-4.18 -4.75,-5.75c0.31,-2.23 2.56,-2.55 10.8,-1.55c5.41,0.66 5.04,-1.12 -1,-4.75c-4.07,-2.44 -5.5,-3.89 -5.5,-5.56c0,-2.14 0.38,-2.26 7.41,-2.26c4.16,0 7.56,-0.45 7.76,-1.02c0.19,-0.57 -2.55,-2.29 -6.08,-3.83c-10.14,-4.41 -9.52,-7.27 1.79,-8.32c9.26,-0.87 8.53,-2.64 -2.18,-5.35c-8.12,-2.05 -6.47,-6.4 2.85,-7.48c9.52,-1.11 9.11,-3.84 -0.76,-5.07c-9.64,-1.2 -9.49,-5.34 0.28,-7.99c8.41,-2.27 8.31,-3.97 -0.25,-4.77c-3.67,-0.35 -7.15,-1.1 -7.73,-1.68c-1.77,-1.77 0.69,-4.28 6.5,-6.61c7.89,-3.18 7.16,-4.88 -2.09,-4.88c-6.92,0 -7.52,-0.17 -7.81,-2.16c-0.25,-1.74 0.87,-2.79 5.75,-5.39c7.34,-3.91 8.23,-6.53 1.81,-5.33c-7.9,1.47 -11.22,1.12 -11.55,-1.21c-0.22,-1.57 1.08,-3.05 5.18,-5.87c3.59,-2.48 5.28,-4.26 4.92,-5.21c-0.31,-0.8 -1.06,-1.26 -1.68,-1.03c-15.38,5.65 -19.11,3.75 -9.68,-4.93c6.6,-6.09 5.9,-8.16 -1.65,-4.82c-10.64,4.71 -12.96,2.29 -5.82,-6.06c3.82,-4.48 4.39,-5.61 3.07,-6.11c-0.96,-0.37 -3.69,0.66 -6.65,2.5c-5.76,3.58 -6.19,3.67 -7.9,1.61c-1.04,-1.26 -0.63,-2.45 2.38,-6.99c2,-3.01 3.63,-5.93 3.63,-6.48c0,-1.95 -2.75,-1 -7.11,2.47c-8.03,6.39 -10.92,3.81 -6.03,-5.38c2.89,-5.41 3.11,-7.11 0.93,-7.11c-0.48,0 -3.1,2.08 -5.81,4.62c-3.1,2.89 -5.5,4.39 -6.46,4.03c-2.03,-0.78 -1.92,-2.51 0.59,-9.21c2.95,-7.88 1.3,-8.9 -4.06,-2.5c-4.01,4.79 -7.17,6.29 -8.55,4.06c-0.34,-0.55 0.09,-3.74 0.94,-7.09c2.48,-9.65 0.36,-10.8 -4.44,-2.41c-2.51,4.39 -3.66,5.5 -5.68,5.5c-2.51,0 -2.53,-0.06 -2.17,-7.25c0.2,-4.2 -0.07,-7.46 -0.65,-7.75c-0.55,-0.27 -2.36,2.2 -4.03,5.5c-2.16,4.28 -3.59,6 -5,6c-1.74,0 -2.03,-0.87 -2.47,-7.5c-0.62,-9.29 -2.46,-10.01 -5.17,-2.02c-2.34,6.88 -4.11,8.87 -6.28,7.06c-0.85,-0.71 -1.55,-2.47 -1.56,-3.91c-0.02,-5.29 -1.27,-10.13 -2.6,-10.13c-1.34,0 -1.69,0.93 -3.17,8.41c-0.87,4.38 -3.45,6.76 -5.32,4.89c-0.63,-0.63 -1.67,-3.74 -2.3,-6.9c-1.1,-5.48 -3.11,-8.09 -4.03,-5.23m1.43,24.51c-6.52,1.06 -15.91,3.66 -19.71,5.46c-7.62,3.62 -10.16,10.92 -6.22,17.86l1.99,3.5l-0.61,-3.25c-0.81,-4.34 0.45,-4.04 3.88,0.91c3.46,5.01 5.2,4 4.79,-2.77c-0.33,-5.34 1.08,-5.24 3.38,0.25c1.02,2.46 2,3.41 3.23,3.16c1.37,-0.27 1.77,-1.34 1.77,-4.74c0,-2.62 0.5,-4.56 1.25,-4.81c0.69,-0.23 1.25,0.32 1.25,1.22c0,2.62 3.01,7.69 4.31,7.27c0.65,-0.22 1.41,-2.38 1.69,-4.82c0.63,-5.58 2.23,-5.65 3.39,-0.15c1.23,5.8 3.98,5.83 5.22,0.06c1.27,-5.93 3.39,-6.22 3.39,-0.47c0,7.1 3.22,7.33 5.57,0.41c1.61,-4.75 3.64,-4.82 3.42,-0.13c-0.27,5.74 -0.13,6.36 1.49,6.36c0.81,0 2.4,-1.8 3.52,-4c1.12,-2.2 2.41,-4 2.87,-4c0.46,0 0.63,2.19 0.37,4.87c-0.62,6.46 1,7.26 4.49,2.21c4.1,-5.92 5.55,-5.07 3.15,1.85c-0.84,2.38 -0.84,3.51 0,4.35c0.83,0.83 2.19,0.1 5.25,-2.83l4.12,-3.95l-0.69,3c-1.73,7.6 -1.78,8.5 -0.47,8.5c0.72,0 2.79,-1.43 4.6,-3.18c4.16,-4.04 5.33,-2.98 2.43,2.19c-3.51,6.23 -1.38,7.82 4.47,3.35c4.56,-3.48 5.35,-2.38 1.97,2.73c-3.67,5.54 -2.21,7.21 3.5,4c5.06,-2.84 6,-2.13 2.56,1.94c-4.61,5.49 -3.13,7.33 3.63,4.51c4.94,-2.06 5.38,-0.76 1.09,3.17c-4.69,4.3 -3.57,6.1 2.82,4.48c2.35,-0.6 4.5,-0.86 4.78,-0.58c0.28,0.28 -1.28,2.02 -3.46,3.87c-4.96,4.19 -3.99,6.1 2.37,4.67c5.58,-1.26 6.14,0.23 1.17,3.05c-5.24,2.98 -4.99,5.4 0.52,5.05c6.61,-0.43 7.49,0.69 2.46,3.11c-6.06,2.92 -5.94,5.05 0.31,5.45c5.14,0.32 6,2.09 1.62,3.31c-2.16,0.61 -2.06,0.69 0.87,0.78c7.94,0.24 13.16,-7.04 11.75,-16.4c-1.8,-12 -8.17,-26.26 -15.9,-35.62c-9.66,-11.68 -31.54,-26.05 -48.29,-31.72c-10.34,-3.5 -22.75,-4.88 -31.36,-3.48m-53.85,23.94c-5.71,2.5 -19.17,17.54 -23.72,26.51c-1.32,2.62 -3.61,8.72 -5.08,13.56c-2.48,8.16 -2.68,10.21 -2.76,27.81c-0.14,29.38 3.78,41.54 19.03,58.98c9.99,11.42 17.23,14.72 24.31,11.06c1.55,-0.81 3.11,-2.19 3.45,-3.08c0.88,-2.3 0.8,-2.47 -0.88,-1.82c-2.03,0.78 -1.89,-0.17 0.72,-4.81c1.87,-3.33 1.99,-4.08 0.77,-4.83c-0.99,-0.62 -2.47,-0.11 -4.74,1.63c-4.58,3.49 -5.77,2.6 -2.66,-1.98c1.97,-2.9 2.33,-4.13 1.47,-4.99c-0.87,-0.87 -2.17,-0.6 -5.27,1.1c-6.02,3.29 -6.07,2.47 -0.31,-5.37c0.65,-0.89 0.6,-1.71 -0.13,-2.44c-0.82,-0.82 -2.18,-0.57 -5.11,0.93c-5.44,2.77 -6.05,1.53 -1.52,-3.11c4.6,-4.71 3.35,-6.3 -3.38,-4.27c-5.25,1.58 -5.54,0.52 -0.84,-3.07c5.4,-4.12 4.72,-5.81 -2,-4.97c-3.03,0.38 -5.5,0.31 -5.5,-0.14c0,-0.45 1.69,-1.72 3.75,-2.82c5.54,-2.96 4.92,-4.89 -1.75,-5.5l-5.5,-0.5l4.75,-2.19c2.61,-1.21 4.75,-2.87 4.75,-3.7c0,-1.08 -1.33,-1.59 -4.75,-1.8c-5.64,-0.37 -5.9,-1.88 -0.58,-3.4c2.18,-0.62 3.97,-1.81 4.15,-2.75c0.36,-1.81 -0.36,-2.18 -6.17,-3.15c-4.54,-0.75 -4.06,-1.62 1.68,-3c5.49,-1.33 5.46,-3.6 -0.08,-5.35c-2.34,-0.75 -4.25,-1.73 -4.25,-2.2c0,-0.47 2.13,-0.99 4.74,-1.15c6.35,-0.41 6.98,-2.9 1.31,-5.17c-5.1,-2.04 -5.25,-3.85 -0.3,-3.62c5.63,0.26 6.25,0.11 6.25,-1.5c0,-0.81 -1.82,-2.41 -4.03,-3.54c-5.01,-2.55 -4.41,-3.97 1.25,-2.94c6.89,1.26 7.96,-1.05 2.27,-4.92c-1.92,-1.31 -3.49,-2.77 -3.49,-3.25c0,-1.13 0.5,-1.1 5.17,0.3c3.03,0.91 4.16,0.89 5.11,-0.07c0.96,-0.97 0.53,-1.85 -2.03,-4.15c-4.79,-4.31 -4.34,-6.36 0.75,-3.45c5.92,3.38 8.1,0.31 3.32,-4.69c-2.9,-3.03 -2.43,-4.98 0.73,-3.02c1.07,0.66 2.84,1.76 3.92,2.43c1.53,0.95 2.25,0.96 3.17,0.05c0.91,-0.92 0.55,-2.14 -1.56,-5.32c-4.07,-6.16 -2.88,-6.28 5.03,-0.47c0.89,0.65 1.71,0.6 2.44,-0.13c0.81,-0.82 0.54,-2.24 -1.04,-5.33c-2.58,-5.07 -1.95,-6.24 1.6,-2.94l2.61,2.42l-2.81,-4.68c-4.1,-6.84 -8.95,-8.38 -16.26,-5.2m46.58,14.26c-3.73,0.97 -7.19,2.18 -7.69,2.69c-0.56,0.57 2.62,7.41 8.1,17.43c12.13,22.21 12.75,23.08 18.97,26.48l5.39,2.95l22.99,-0.29c12.65,-0.16 23.15,-0.44 23.33,-0.63c0.8,-0.8 -3.11,-13.55 -5.99,-19.51c-4.28,-8.86 -15.89,-20.32 -25.08,-24.76c-13,-6.28 -26.87,-7.79 -40.02,-4.36m-26.95,15.97c-11.52,12.22 -16.37,25.52 -15.53,42.64c0.7,14.35 5.37,25.45 15.36,36.51c6.75,7.46 5.86,8.09 18.26,-12.87c16.2,-27.38 16.21,-27.93 1.06,-53.52c-5.57,-9.41 -10.69,-17.69 -11.37,-18.41c-0.99,-1.05 -2.48,0.03 -7.78,5.65m37.42,35.35c-0.66,0.66 -1.2,2.37 -1.2,3.8c0,5.27 5.69,6.93 8.59,2.5c1.52,-2.32 1.52,-2.68 0,-5c-1.75,-2.68 -5.37,-3.32 -7.39,-1.3m9.3,12.18c-2.75,1.29 -5.98,3.43 -7.18,4.74c-1.73,1.88 -22.32,38.16 -22.32,39.32c0,0.15 3.26,1.31 7.25,2.57c14.39,4.55 31.88,2.59 45.34,-5.07c14.01,-7.98 25.27,-24.01 27.88,-39.69l0.71,-4.25l-23.34,0.01c-22.43,0.01 -23.53,0.1 -28.34,2.37m70.43,-0.5c4.65,1.3 3.57,3.12 -1.85,3.12c-6.66,0 -6.89,2.31 -0.5,5.14c5.39,2.38 5.05,3.36 -1.01,2.99c-5.17,-0.32 -6.91,1.43 -3.76,3.78c7.29,5.46 7.21,5.22 1.55,4.54c-6.99,-0.83 -7.91,0.87 -2.8,5.16c4.64,3.9 4.21,4.93 -1.25,3c-6.35,-2.24 -7.6,-0.52 -3.03,4.16c4.5,4.61 3.92,5.88 -1.44,3.15c-6.19,-3.16 -7.6,-1.1 -3.2,4.67c1.45,1.91 2.39,3.71 2.09,4.02c-0.31,0.3 -2.38,-0.5 -4.6,-1.78c-3.04,-1.75 -4.32,-2.04 -5.19,-1.17c-0.86,0.86 -0.51,2.08 1.41,4.91c3.22,4.74 2.44,6.27 -1.5,2.96c-3.19,-2.68 -6.85,-3.37 -6.85,-1.28c0.01,0.69 0.91,2.72 2,4.52c2.36,3.87 2.42,4.23 0.67,4.23c-0.73,0 -2.38,-1.12 -3.67,-2.5c-4.25,-4.52 -6.6,-2.1 -3.84,3.96c1.83,4 -0.03,4.38 -3.09,0.62c-1.99,-2.43 -3.28,-3.21 -4.53,-2.73c-1.75,0.67 -1.75,0.86 0.07,7.4c0.97,3.51 -1.4,2.72 -3.74,-1.25c-2.04,-3.45 -4.78,-4.69 -4.96,-2.25c-0.05,0.69 -0.04,3.28 0.02,5.75c0.13,4.93 -0.51,4.62 -4.2,-2.03c-1.5,-2.72 -1.99,-3 -3.32,-1.9c-1.03,0.86 -1.44,2.56 -1.23,5.08c0.44,5.22 -1.21,5.25 -2.95,0.05c-1.94,-5.83 -4.54,-5.43 -5.23,0.81c-0.62,5.56 -2.09,5.47 -3.46,-0.21c-1.4,-5.78 -3.7,-5.69 -5.13,0.2c-1.38,5.74 -2.77,5.75 -3.41,0.01c-0.68,-6.12 -3.28,-6.66 -5.15,-1.06c-1.63,4.9 -3.31,4.87 -3.46,-0.07c-0.21,-7.04 -2.12,-7.29 -5.47,-0.72c-1.14,2.22 -2.34,3.75 -2.68,3.41c-0.34,-0.34 -0.5,-2.86 -0.36,-5.59c0.33,-6.13 -1.64,-6.73 -4.88,-1.48c-1.19,1.93 -2.62,3.5 -3.19,3.5c-0.95,0 -0.83,-1.11 0.8,-7.5c0.28,-1.1 -0.94,0.41 -2.7,3.37c-3.63,6.07 -3.97,10.23 -1.13,14.06c7.47,10.09 33.47,14.63 52.7,9.2c26.3,-7.42 52.48,-27 61.9,-46.32c3.4,-6.96 7.57,-21.3 7.6,-26.13c0.04,-7.36 -4.4,-12.73 -10.4,-12.58c-3.24,0.08 -3.58,0.24 -1.65,0.78" fill="#5c5c5d" fill-rule="evenodd" id="svg_2"/>
 </g>
</svg>