<svg width="73" height="73" xmlns="http://www.w3.org/2000/svg" version="1.1">
 <g class="layer">
  <title>Layer 1</title>
  <path d="m15.67,33.6c-1.57,1.36 -4.06,2.4 -5.73,2.4l-2.94,0l0,12.57c0,19.45 0.9,20.38 19.75,20.41l13.25,0.02l0,-14l0,-14l9.5,0l9.5,0l0,14c0,7.7 0.25,14 0.55,14c1.92,0 6.25,-3.27 7.26,-5.47c0.72,-1.59 1.19,-7.55 1.19,-15.08l0,-12.45l-2.92,0c-1.63,0 -4.19,-1.06 -5.77,-2.4l-2.85,-2.39l-2.79,2.39c-1.9,1.64 -4.01,2.4 -6.65,2.4c-2.62,0 -4.78,-0.77 -6.71,-2.4l-2.85,-2.39l-2.79,2.39c-3.76,3.24 -9.51,3.24 -13.36,0l-2.85,-2.39l-2.79,2.39m3.33,18.4l0,11l4.5,0l4.5,0l0,-11l0,-11l-4.5,0l-4.5,0l0,11m2,0.07l0,10.06l2.75,-0.06c0.92,-0.11 2.09,0.23 3,0.12l-0.16,-0.05l0.09,0.05l-2.45,-0.19l-3.23,0.32c0,3.36 0,-13.6 0,-10.25" fill="#ffffff" fill-rule="evenodd" id="svg_1"/>
  <path d="m10.25,14.41c-4.54,5.72 -8.25,10.66 -8.25,10.99c0,0.33 3.54,0.6 7.86,0.6l7.87,0l2.76,-9.75c1.52,-5.36 2.98,-10.31 3.25,-11c0.31,-0.82 -0.51,-1.25 -2.38,-1.24c-2.43,0 -4.1,1.56 -11.11,10.4m12.39,-0.58c-1.45,5.41 -2.64,10.36 -2.64,11c0,0.8 2.69,1.17 8.5,1.17l8.5,0l0,-11l0,-11l-5.86,0l-5.85,0l-2.65,9.83m15.36,1.17l0,11l8.5,0c4.67,0 8.5,-0.38 8.5,-0.85c0,-0.47 -0.43,-2.16 -0.95,-3.75c-0.52,-1.6 -1.89,-6.16 -3.04,-10.15l-2.1,-7.25l-5.45,0l-5.46,0l0,11m13,-10.25c0,0.41 1.28,5.25 2.85,10.75l2.84,10l8.15,0.29c4.49,0.16 8.16,0.02 8.16,-0.31c0,-0.33 -3.69,-5.3 -8.19,-11.04c-6.93,-8.83 -8.62,-10.44 -11,-10.44c-1.54,0 -2.81,0.34 -2.81,0.75m-50,24.18c0,2.57 4.61,6.07 8,6.07c3.39,0 8,-3.5 8,-6.07c0,-1.75 -0.77,-1.93 -8,-1.93c-7.23,0 -8,0.18 -8,1.93m18,-0.85c0,2.31 5.85,6.92 8.79,6.92c3.57,0 8.21,-3.43 8.21,-6.07c0,-1.75 -0.77,-1.93 -8.5,-1.93c-5.41,0 -8.5,0.39 -8.5,1.08m19,-0.63c0,0.25 0.5,1.55 1.11,2.89c1.23,2.69 4.73,4.66 8.3,4.66c3.05,0 7.59,-3.63 7.59,-6.07c0,-1.75 -0.77,-1.93 -8.5,-1.93c-4.67,0 -8.5,0.2 -8.5,0.45m19,0c0,0.25 0.5,1.55 1.11,2.89c2.95,6.47 14.89,5.75 14.89,-0.9c0,-2.38 -0.18,-2.44 -8,-2.44c-4.4,0 -8,0.2 -8,0.45" fill="#ff5656" fill-rule="evenodd" id="svg_2" transform="matrix(1 0 0 1 0 0)"/>
 </g>
</svg>