<svg width="5000" height="5000" xmlns="http://www.w3.org/2000/svg" preserveAspectRatio="xMidYMid meet" version="1.0">
 <g class="layer">
  <title>Layer 1</title>
  <g fill="#000000" id="svg_1" transform="matrix(0.1 0 0 -0.1 0 0)">
   <path d="m41058,-5546c-96,-127 -7554,-10110 -12693,-16991c-2178,-2916 -3964,-5301 -3970,-5299c-5,1 -396,520 -869,1152c-472,632 -2055,2750 -3517,4707c-1463,1957 -2659,3555 -2659,3550c0,-4 -441,-1983 -979,-4398c-539,-2414 -978,-4390 -978,-4391c6,-2 9025,-6700 9038,-6711c15,-13 1184,1102 11030,10523c6058,5796 11014,10542 11013,10548c-1,6 -660,925 -1466,2041c-805,1117 -1617,2242 -1803,2500c-186,259 -386,535 -444,615c-57,80 -442,613 -854,1185c-412,572 -755,1046 -762,1054c-11,11 -26,-4 -87,-85z" fill="#ff0000" id="svg_2"/>
   <path d="m12270,-25015l0,-12795l12790,0l12790,0l0,7481l0,7481l-94,-89c-51,-48 -418,-398 -815,-778l-721,-690l0,-5887l0,-5888l-11165,0l-11165,0l0,11165l0,11165l9703,0l9703,0l594,797c327,438 601,804 608,815c13,17 -290,18 -11107,18l-11121,0l0,-12795z" fill="#ff0000" id="svg_3"/>
  </g>
 </g>
</svg>